<?xml version="1.0" encoding="UTF-8" standalone="no"?>
<!-- Created with Inkscape (http://www.inkscape.org/) -->

<svg
   width="48"
   height="48"
   viewBox="0 0 12.7 12.7"
   version="1.1"
   id="svg1"
   inkscape:export-filename="deploy/favicon.png"
   inkscape:export-xdpi="96"
   inkscape:export-ydpi="96"
   inkscape:version="1.3.2 (091e20ef0f, 2023-11-25)"
   sodipodi:docname="favicon_source.svg"
   xmlns:inkscape="http://www.inkscape.org/namespaces/inkscape"
   xmlns:sodipodi="http://sodipodi.sourceforge.net/DTD/sodipodi-0.dtd"
   xmlns:xlink="http://www.w3.org/1999/xlink"
   xmlns="http://www.w3.org/2000/svg"
   xmlns:svg="http://www.w3.org/2000/svg">
  <sodipodi:namedview
     id="namedview1"
     pagecolor="#ffffff"
     bordercolor="#000000"
     borderopacity="0.25"
     inkscape:showpageshadow="2"
     inkscape:pageopacity="0.0"
     inkscape:pagecheckerboard="0"
     inkscape:deskcolor="#d1d1d1"
     inkscape:document-units="mm"
     showgrid="true"
     inkscape:zoom="8.0000004"
     inkscape:cx="14.187499"
     inkscape:cy="19.937499"
     inkscape:window-width="1920"
     inkscape:window-height="1200"
     inkscape:window-x="0"
     inkscape:window-y="0"
     inkscape:window-maximized="0"
     inkscape:current-layer="layer1">
    <inkscape:grid
       id="grid1"
       units="px"
       originx="0"
       originy="0"
       spacingx="0.21166667"
       spacingy="0.21166667"
       empcolor="#0099e5"
       empopacity="0.30196078"
       color="#0099e5"
       opacity="0.14901961"
       empspacing="10"
       dotted="false"
       gridanglex="30"
       gridanglez="30"
       visible="true" />
  </sodipodi:namedview>
  <defs
     id="defs1">
    <pattern
       inkscape:collect="always"
       xlink:href="#Wave 3"
       preserveAspectRatio="xMidYMid"
       id="pattern21"
       patternTransform="matrix(0.21,0,0,0.21,530,595)"
       x="0"
       y="47" />
    <clipPath
       clipPathUnits="userSpaceOnUse"
       id="clipPath5">
      <rect
         style="fill:#000000;stroke:#000000;stroke-width:0;stroke-linejoin:bevel;paint-order:stroke markers fill;stop-color:#000000"
         id="rect5-4"
         width="20"
         height="200"
         x="530"
         y="595" />
    </clipPath>
    <pattern
       patternUnits="userSpaceOnUse"
       width="20"
       height="200"
       patternTransform="translate(530,595)"
       preserveAspectRatio="xMidYMid"
       style="fill:#000000"
       id="Wave 3"
       inkscape:collect="always"
       inkscape:isstock="true"
       inkscape:label="Wave 3">
      <path
         style="stroke:#000000;stroke-width:0;stroke-linejoin:bevel;paint-order:stroke markers fill;stop-color:#000000"
         d="m 515,695 v -35 c 0,-3.92609 1.06702,-7.77836 3.08697,-11.14496 l 8.82606,-14.71008 C 528.93298,630.77836 530,626.92609 530,623 v -28 h 5 v 28 c 0,3.92609 -1.06702,7.77836 -3.08697,11.14496 l -8.82606,14.71008 C 521.06702,652.22164 520,656.07391 520,660 v 35 z m 10,0 v -35 c 0,-3.92609 1.06702,-7.77836 3.08697,-11.14496 l 8.82606,-14.71008 C 538.93298,630.77836 540,626.92609 540,623 v -28 h 5 v 28 c 0,3.92609 -1.06702,7.77836 -3.08697,11.14496 l -8.82606,14.71008 C 531.06702,652.22164 530,656.07391 530,660 v 35 z m 10,0 v -35 c 0,-3.92609 1.06702,-7.77836 3.08697,-11.14496 l 8.82606,-14.71008 C 548.93298,630.77836 550,626.92609 550,623 v -28 h 5 v 28 c 0,3.92609 -1.06702,7.77836 -3.08697,11.14496 l -8.82606,14.71008 C 541.06702,652.22164 540,656.07391 540,660 v 35 z m 10,0 v -35 c 0,-3.92609 1.06702,-7.77836 3.08697,-11.14496 l 8.82606,-14.71008 C 558.93298,630.77836 560,626.92609 560,623 v -28 h 5 v 28 c 0,3.92609 -1.06702,7.77836 -3.08697,11.14496 l -8.82606,14.71008 C 551.06702,652.22164 550,656.07391 550,660 v 35 z m 10,0 v -35 c 0,-3.92609 1.06702,-7.77836 3.08697,-11.14496 l 8.82606,-14.71008 C 568.93298,630.77836 570,626.92609 570,623 v -28 h 5 v 28 c 0,3.92609 -1.06702,7.77836 -3.08697,11.14496 l -8.82606,14.71008 C 561.06702,652.22164 560,656.07391 560,660 v 35 z m 10,0 v -35 c 0,-3.92609 1.06702,-7.77836 3.08697,-11.14496 l 8.82606,-14.71008 C 578.93298,630.77836 580,626.92609 580,623 v -28 h 5 v 28 c 0,3.92609 -1.06702,7.77836 -3.08697,11.14496 l -8.82606,14.71008 C 571.06702,652.22164 570,656.07391 570,660 v 35 z m 10,0 v -35 c 0,-3.92609 1.06702,-7.77836 3.08697,-11.14496 l 8.82606,-14.71008 C 588.93298,630.77836 590,626.92609 590,623 v -28 h 5 v 28 c 0,3.92609 -1.06702,7.77836 -3.08697,11.14496 l -8.82606,14.71008 C 581.06702,652.22164 580,656.07391 580,660 v 35 z m -65,100 v -35 c 0,-3.92609 1.06702,-7.77836 3.08697,-11.14496 l 8.82606,-14.71008 C 523.93298,730.77836 525,726.92609 525,723 v -28 h 5 v 28 c 0,3.92609 -1.06702,7.77836 -3.08697,11.14496 l -8.82606,14.71008 C 516.06702,752.22164 515,756.07391 515,760 v 35 z m 10,0 v -35 c 0,-3.92609 1.06702,-7.77836 3.08697,-11.14496 l 8.82606,-14.71008 C 533.93298,730.77836 535,726.92609 535,723 v -28 h 5 v 28 c 0,3.92609 -1.06702,7.77836 -3.08697,11.14496 l -8.82606,14.71008 C 526.06702,752.22164 525,756.07391 525,760 v 35 z m 10,0 v -35 c 0,-3.92609 1.06702,-7.77836 3.08697,-11.14496 l 8.82606,-14.71008 C 543.93298,730.77836 545,726.92609 545,723 v -28 h 5 v 28 c 0,3.92609 -1.06702,7.77836 -3.08697,11.14496 l -8.82606,14.71008 C 536.06702,752.22164 535,756.07391 535,760 v 35 z m 10,0 v -35 c 0,-3.92609 1.06702,-7.77836 3.08697,-11.14496 l 8.82606,-14.71008 C 553.93298,730.77836 555,726.92609 555,723 v -28 h 5 v 28 c 0,3.92609 -1.06702,7.77836 -3.08697,11.14496 l -8.82606,14.71008 C 546.06702,752.22164 545,756.07391 545,760 v 35 z m 10,0 v -35 c 0,-3.92609 1.06702,-7.77836 3.08697,-11.14496 l 8.82606,-14.71008 C 563.93298,730.77836 565,726.92609 565,723 v -28 h 5 v 28 c 0,3.92609 -1.06702,7.77836 -3.08697,11.14496 l -8.82606,14.71008 C 556.06702,752.22164 555,756.07391 555,760 v 35 z m 10,0 v -35 c 0,-3.92609 1.06702,-7.77836 3.08697,-11.14496 l 8.82606,-14.71008 C 573.93298,730.77836 575,726.92609 575,723 v -28 h 5 v 28 c 0,3.92609 -1.06702,7.77836 -3.08697,11.14496 l -8.82606,14.71008 C 566.06702,752.22164 565,756.07391 565,760 v 35 z m 10,0 v -35 c 0,-3.92609 1.06702,-7.77836 3.08697,-11.14496 l 8.82606,-14.71008 C 583.93298,730.77836 585,726.92609 585,723 v -28 h 5 v 28 c 0,3.92609 -1.06702,7.77836 -3.08697,11.14496 l -8.82606,14.71008 C 576.06702,752.22164 575,756.07391 575,760 v 35 z"
         id="path5-2"
         sodipodi:nodetypes="ccccccccc"
         clip-path="url(#clipPath5)"
         transform="translate(-530,-595)" />
    </pattern>
    <inkscape:path-effect
       effect="fillet_chamfer"
       id="path-effect11"
       is_visible="true"
       lpeversion="1"
       nodesatellites_param="F,0,0,1,0,1.6933327,0,1 @ F,0,0,1,0,0.21166671,0,1 @ F,0,0,1,0,0.21166671,0,1 @ F,0,0,1,0,0.84666696,0,1 @ F,0,0,1,0,0.42333343,0,1 @ F,0,0,1,0,0.2116669,0,1 @ F,0,0,1,0,0.21249355,0,1 @ F,0,0,1,0,0.84666633,0,1"
       radius="0"
       unit="px"
       method="auto"
       mode="F"
       chamfer_steps="1"
       flexible="false"
       use_knot_distance="true"
       apply_no_radius="true"
       apply_with_radius="true"
       only_selected="false"
       hide_knots="false" />
    <inkscape:path-effect
       effect="fillet_chamfer"
       id="path-effect5"
       is_visible="true"
       lpeversion="1"
       nodesatellites_param="F,0,0,1,0,0.21166671,0,1 @ F,0,0,1,0,0.84666602,0,1 @ F,0,0,1,0,0.211666,0,1 @ F,0,0,1,0,0.211666,0,1 @ F,0,0,1,0,0.42333322,0,1 @ F,0,0,1,0,0.21166671,0,1"
       radius="0"
       unit="px"
       method="auto"
       mode="F"
       chamfer_steps="1"
       flexible="false"
       use_knot_distance="true"
       apply_no_radius="true"
       apply_with_radius="true"
       only_selected="false"
       hide_knots="false" />
    <inkscape:path-effect
       effect="fillet_chamfer"
       id="path-effect4"
       is_visible="true"
       lpeversion="1"
       nodesatellites_param="F,0,0,1,0,1.6933327,0,1 @ F,0,0,1,0,0.21166671,0,1 @ F,0,0,1,0,0.21166671,0,1 @ F,0,0,1,0,0.84666696,0,1 @ F,0,0,1,0,0.42333343,0,1 @ F,0,0,1,0,0.2116669,0,1 @ F,0,0,1,0,0.21249355,0,1 @ F,0,0,1,0,0.84666633,0,1"
       radius="0"
       unit="px"
       method="auto"
       mode="F"
       chamfer_steps="1"
       flexible="false"
       use_knot_distance="true"
       apply_no_radius="true"
       apply_with_radius="true"
       only_selected="false"
       hide_knots="false" />
    <inkscape:path-effect
       effect="fillet_chamfer"
       id="path-effect3"
       is_visible="true"
       lpeversion="1"
       nodesatellites_param="F,0,0,1,0,0.31708649,0,1 @ F,0,0,1,0,1.0583335,0,1 @ F,0,0,1,0,0.31750049,0,1 @ F,0,0,1,0,0.31749991,0,1 @ F,0,0,1,0,0.52916677,0,1 @ F,0,0,1,0,0.31660607,0,1"
       radius="0"
       unit="px"
       method="auto"
       mode="F"
       chamfer_steps="1"
       flexible="false"
       use_knot_distance="true"
       apply_no_radius="true"
       apply_with_radius="true"
       only_selected="false"
       hide_knots="false" />
    <inkscape:path-effect
       effect="fillet_chamfer"
       id="path-effect2"
       is_visible="true"
       lpeversion="1"
       nodesatellites_param="F,0,0,1,0,0.3181199,0,1 @ F,0,0,1,0,0.42333312,0,1 @ F,0,0,1,0,0.31750049,0,1 @ F,0,0,1,0,0.31749979,0,1 @ F,0,0,1,0,0.21253256,0,1 @ F,0,0,1,0,0.31690424,0,1"
       radius="0"
       unit="px"
       method="auto"
       mode="F"
       chamfer_steps="1"
       flexible="false"
       use_knot_distance="true"
       apply_no_radius="true"
       apply_with_radius="true"
       only_selected="false"
       hide_knots="false" />
    <inkscape:path-effect
       effect="fillet_chamfer"
       id="path-effect3-7"
       is_visible="true"
       lpeversion="1"
       nodesatellites_param="F,0,0,1,0,0.31708649,0,1 @ F,0,0,1,0,1.0583335,0,1 @ F,0,0,1,0,0.31750049,0,1 @ F,0,0,1,0,0.31749991,0,1 @ F,0,0,1,0,0.52916677,0,1 @ F,0,0,1,0,0.31660607,0,1"
       radius="0"
       unit="px"
       method="auto"
       mode="F"
       chamfer_steps="1"
       flexible="false"
       use_knot_distance="true"
       apply_no_radius="true"
       apply_with_radius="true"
       only_selected="false"
       hide_knots="false" />
  </defs>
  <g
     inkscape:label="Layer 1"
     inkscape:groupmode="layer"
     id="layer1">
    <rect
       style="fill:#206492;stroke:#00233c;stroke-width:1.5875;stroke-linecap:butt;stroke-linejoin:round;stroke-dasharray:none;stroke-opacity:1;paint-order:stroke fill markers;fill-opacity:1"
       id="rect4"
       width="11.006667"
       height="11.006667"
       x="0.84666669"
       y="0.84666669"
       ry="0.42333332" />
    <rect
       style="fill:url(#pattern21);stroke:none;stroke-width:0.79375;stroke-linecap:butt;stroke-linejoin:round;stroke-dasharray:none;stroke-opacity:1;paint-order:stroke fill markers;fill-opacity:1;opacity:0.1"
       id="rect13"
       width="11.006667"
       height="11.006667"
       x="0.84666669"
       y="0.84666669"
       ry="0.42333332" />
    <path
       style="fill:#edcd19;stroke-width:1.5875;stroke-dasharray:none;stroke:#4a2605;stroke-opacity:1;stroke-linejoin:round;stroke-linecap:butt;paint-order:stroke fill markers;fill-opacity:1"
       d="M 8.0434875,4.3573564 6.7729763,8.0351681 6.7730785,9.736873 a 0.84666602,0.84666602 0 0 0 0.8467819,0.84646 H 10.37163 a 0.211666,0.211666 0 0 0 0.211566,-0.211873 l 1.95e-4,-0.8464604 A 0.211666,0.211666 0 0 0 10.371726,9.3131262 H 8.4669332 a 0.42333322,0.42333322 18.434949 0 1 -0.423391,-0.42323 z"
       transform="matrix(1,0,0.12049871,1,-0.98709398,4.008274e-7)"
       id="path11" />
    <path
       style="fill:#edcd19;stroke-width:1.5875;stroke-dasharray:none;stroke:#4a2605;stroke-opacity:1;stroke-linejoin:round;stroke-linecap:butt;paint-order:stroke fill markers;fill-opacity:1"
       d="M 4.2333342,10.583333 H 2.3283334 A 0.21166671,0.21166671 45 0 1 2.1166667,10.371666 V 9.5250006 A 0.21166671,0.21166671 135 0 1 2.3283334,9.3133339 h 1.4816665 a 0.84666696,0.84666696 135 0 0 0.846667,-0.846667 V 3.8100004 A 0.42333343,0.42333343 45 0 0 4.2333335,3.386667 H 2.3283336 A 0.2116669,0.2116669 45 0 1 2.1166667,3.1750001 V 2.3291607 A 0.21249355,0.21249355 135 0 1 2.3291603,2.1166671 h 2.7508403 a 0.84666633,0.84666633 45 0 1 0.8466663,0.8466663 l 0,5.9266669 A 1.6933327,1.6933327 135 0 1 4.2333342,10.583333 Z"
       id="path1"
       inkscape:path-effect="#path-effect4"
       inkscape:original-d="M 5.9266669,10.583333 H 2.1166667 V 9.3133339 H 4.6566669 V 3.386667 H 2.1166667 V 2.1166671 h 3.8100002 z"
       transform="matrix(1,0,-0.22490231,1,2.2374032,2.0082741e-7)" />
  </g>
</svg>
