<?xml version="1.0" encoding="UTF-8" standalone="no"?>
<!-- Created with Inkscape (http://www.inkscape.org/) -->

<svg
   width="88"
   height="31"
   viewBox="0 0 23.283334 8.2020833"
   version="1.1"
   id="svg1"
   inkscape:version="1.3.2 (091e20ef0f, 2023-11-25)"
   sodipodi:docname="ray-out_source.svg"
   inkscape:export-filename="../../../Desktop/badges/ray-out.png"
   inkscape:export-xdpi="96"
   inkscape:export-ydpi="96"
   xmlns:inkscape="http://www.inkscape.org/namespaces/inkscape"
   xmlns:sodipodi="http://sodipodi.sourceforge.net/DTD/sodipodi-0.dtd"
   xmlns="http://www.w3.org/2000/svg"
   xmlns:svg="http://www.w3.org/2000/svg">
  <sodipodi:namedview
     id="namedview1"
     pagecolor="#ffffff"
     bordercolor="#000000"
     borderopacity="0.25"
     inkscape:showpageshadow="2"
     inkscape:pageopacity="0.0"
     inkscape:pagecheckerboard="0"
     inkscape:deskcolor="#d1d1d1"
     inkscape:document-units="px"
     showgrid="true"
     inkscape:zoom="8.7383637"
     inkscape:cx="38.908886"
     inkscape:cy="19.854976"
     inkscape:window-width="957"
     inkscape:window-height="1080"
     inkscape:window-x="0"
     inkscape:window-y="0"
     inkscape:window-maximized="0"
     inkscape:current-layer="layer1">
    <inkscape:grid
       id="grid1"
       units="px"
       originx="0"
       originy="0"
       spacingx="0.26458334"
       spacingy="0.26458333"
       empcolor="#0099e5"
       empopacity="0.30196078"
       color="#0099e5"
       opacity="0.14901961"
       empspacing="4"
       dotted="false"
       gridanglex="30"
       gridanglez="30"
       visible="true" />
  </sodipodi:namedview>
  <defs
     id="defs1" />
  <g
     inkscape:label="Layer 1"
     inkscape:groupmode="layer"
     id="layer1">
    <path
       id="path1"
       style="font-weight:bold;font-size:6.52297px;font-family:'Nimbus Sans Narrow';-inkscape-font-specification:'Nimbus Sans Narrow Bold';letter-spacing:-0.263804px;word-spacing:0px;fill:#0c0c0c;stroke:none;stroke-width:0.292494;stroke-linecap:round;stroke-opacity:1;paint-order:stroke fill markers;fill-opacity:1"
       d="m 5.178762,2.2059693 c -0.6291822,0 -1.0696032,0.1434185 -1.3212761,0.4308133 -0.082067,0.096483 -0.1453965,0.1983406 -0.1891657,0.3050873 -0.041034,0.1067466 -0.075301,0.2532343 -0.102657,0.4400409 h 0.9273733 c 0.030091,-0.1724369 0.092119,-0.2935406 0.1851286,-0.3633366 0.095745,-0.069796 0.2458306,-0.1043871 0.4509987,-0.1043871 0.3993939,0 0.5992169,0.127242 0.5992169,0.3817918 0,0.1519084 -0.1119134,0.2431516 -0.3362305,0.2739442 L 4.5218726,3.6898818 C 4.166248,3.7391495 3.8971651,3.8602533 3.7138815,4.0532184 3.5388047,4.2379722 3.450895,4.4732106 3.450895,4.7585526 c 0,0.2935532 0.095719,0.5265534 0.2872089,0.6989903 0.2079037,0.1888594 0.493758,0.2831718 0.8575895,0.2831718 0.3036488,0 0.5720071,-0.068352 0.8045309,-0.2058907 0.103952,-0.061585 0.2229495,-0.1550662 0.3569926,-0.2802882 0.013678,0.1395917 0.043464,0.2715645 0.089969,0.3967865 H 6.8772162 V 5.5192524 C 6.8006205,5.4884601 6.7462537,5.4340465 6.7134264,5.3560394 6.6833356,5.2780322 6.6678651,5.1577592 6.6678651,4.9955864 V 3.1789037 c 0,-0.3120287 -0.1312877,-0.5519979 -0.3939029,-0.720329 C 6.0086114,2.2902434 5.6438098,2.2059693 5.178762,2.2059693 Z m 0.5496187,1.813799 V 4.447698 c 0,0.182701 -0.082127,0.338396 -0.2462614,0.4677237 -0.1641346,0.1293276 -0.3639575,0.1943562 -0.599217,0.1943562 -0.1449857,0 -0.2582006,-0.035999 -0.3402676,-0.1078475 -0.082067,-0.073902 -0.123419,-0.1743522 -0.123419,-0.301627 0,-0.1457503 0.047859,-0.255985 0.1436045,-0.3298865 C 4.6613008,4.2965154 4.8326389,4.2404402 5.0761051,4.2014366 5.4016386,4.1521689 5.6189578,4.0916171 5.7283807,4.0197683 Z" />
    <path
       style="font-weight:bold;font-size:6.52297px;font-family:'Nimbus Sans Narrow';-inkscape-font-specification:'Nimbus Sans Narrow Bold';letter-spacing:-0.263804px;word-spacing:0px;fill:#0c0c0c;stroke-width:0.292494;stroke-linecap:round;paint-order:stroke fill markers;fill-opacity:1"
       d="m 21.331081,1.3899066 v 0.9052945 h 0.607297 v 0.6312428 h -0.607297 v 1.822906 q 0,0.1631994 0.04924,0.2063086 0.07386,0.064664 0.344681,0.064664 0.05335,0 0.213376,-0.012316 v 0.6681929 l -0.09027,0.00308 q -0.254409,0.00924 -0.369304,0.00924 h -0.127208 q -0.537542,0 -0.759123,-0.1631994 Q 20.374996,5.3621173 20.374996,4.9648962 V 2.9264439 H 19.878488 V 2.2952011 h 0.496508 V 1.3899066 Z"
       id="path9" />
    <path
       style="font-weight:bold;font-size:6.52297px;font-family:'Nimbus Sans Narrow';-inkscape-font-specification:'Nimbus Sans Narrow Bold';letter-spacing:-0.263804px;word-spacing:0px;fill:#0c0c0c;stroke-width:0.292494;stroke-linecap:round;paint-order:stroke fill markers;fill-opacity:1"
       d="M 19.701329,2.2952011 V 5.6515652 H 18.778072 V 5.158888 q -0.131308,0.212467 -0.279029,0.3202402 -0.348787,0.2617348 -0.865811,0.2617348 -0.566263,0 -0.886328,-0.2956063 Q 16.398118,5.1188578 16.398118,4.5030112 V 2.2952011 h 0.956086 v 2.0815615 q 0,0.618926 0.623711,0.618926 0.356992,0 0.562161,-0.2032293 0.205169,-0.2032295 0.205169,-0.5604205 V 2.2952011 Z"
       id="path8" />
    <path
       id="path6"
       style="font-weight:bold;font-size:6.52297px;font-family:'Nimbus Sans Narrow';-inkscape-font-specification:'Nimbus Sans Narrow Bold';letter-spacing:-0.263804px;word-spacing:0px;fill:#0c0c0c;fill-rule:evenodd;stroke-width:0.292494;stroke-linecap:round;paint-order:stroke fill markers;fill-opacity:1"
       d="m 14.38365,2.2059692 c -0.57447,0 -1.034265,0.1571026 -1.378948,0.4711841 -0.347418,0.3140816 -0.520782,0.7479829 -0.520782,1.3022443 0,0.5398917 0.173364,0.9698931 0.520782,1.290133 0.336475,0.3140814 0.787886,0.471184 1.35415,0.471184 0.555321,0 1.00543,-0.1571026 1.350112,-0.471184 0.347418,-0.3161342 0.521359,-0.7461356 0.521359,-1.290133 0,-0.6548497 -0.237995,-1.1392648 -0.713985,-1.4533462 C 15.190806,2.3125581 14.813136,2.2059692 14.38365,2.2059692 Z m -0.01673,0.7451283 c 0.298178,0 0.522581,0.09962 0.673037,0.2987434 0.131308,0.1744897 0.197241,0.4144589 0.197241,0.7203291 0,0.2812363 -0.05365,0.5064366 -0.16033,0.6747678 -0.150457,0.2340215 -0.391055,0.3506486 -0.722058,0.3506486 -0.303649,0 -0.530657,-0.09962 -0.681113,-0.2987434 -0.131307,-0.1744896 -0.196662,-0.4152897 -0.196662,-0.7232127 0,-0.6815363 0.296266,-1.0225328 0.889886,-1.0225328 z" />
    <path
       style="font-weight:bold;font-size:6.52297px;font-family:'Nimbus Sans Narrow';-inkscape-font-specification:'Nimbus Sans Narrow Bold';letter-spacing:-0.263804px;word-spacing:0px;fill:#0c0c0c;stroke-width:0.198432;stroke-linecap:round;paint-order:stroke fill markers;fill-opacity:1"
       d="M 12.196927,4.2613822 V 4.8044811 H 10.122484 V 4.2613822 Z"
       id="path5" />
    <path
       style="font-weight:bold;font-size:6.52297px;font-family:'Nimbus Sans Narrow';-inkscape-font-specification:'Nimbus Sans Narrow Bold';letter-spacing:-0.263804px;word-spacing:0px;fill:#0c0c0c;stroke-width:0.198432;stroke-linecap:round;paint-order:stroke fill markers;fill-opacity:1"
       d="m 12.196927,3.3649673 v 0.543099 h -2.074443 v -0.543099 z"
       id="path4" />
    <path
       style="font-weight:bold;font-size:6.52297px;font-family:'Nimbus Sans Narrow';-inkscape-font-specification:'Nimbus Sans Narrow Bold';letter-spacing:-0.263804px;word-spacing:0px;fill:#0c0c0c;stroke-width:0.292494;stroke-linecap:round;paint-order:stroke fill markers;fill-opacity:1"
       d="M 10.284812,2.2952011 9.0250789,5.5930598 Q 8.8117038,6.1565595 8.6886029,6.4028982 8.5696053,6.6523161 8.454711,6.7662476 8.33161,6.8924962 8.1387517,6.9448432 7.949997,7.0002702 7.6299344,7.0002702 q -0.1600314,0 -0.4595771,-0.012316 V 6.2828081 q 0.1025843,0.012316 0.1969616,0.012316 0.3118559,0 0.4308535,-0.098535 Q 7.921273,6.0980541 7.9910306,5.7901303 L 6.641023,2.2952011 H 7.7120016 L 8.5080548,4.7893799 9.2671776,2.2952011 Z"
       id="path3" />
    <path
       style="font-weight:bold;font-size:6.52297px;font-family:'Nimbus Sans Narrow';-inkscape-font-specification:'Nimbus Sans Narrow Bold';letter-spacing:-0.263804px;word-spacing:0px;fill:#0c0c0c;stroke-width:0.292494;stroke-linecap:round;paint-order:stroke fill markers;fill-opacity:1"
       d="M 1.345273,5.6515653 V 2.2952011 H 2.2685305 V 2.8987308 Q 2.4572853,2.5600151 2.6419368,2.4060534 2.8922422,2.2059033 3.2861654,2.2059033 q 0.053344,0 0.1928582,0.012317 V 3.1142771 Q 3.368233,3.1019601 3.236925,3.1019601 q -0.4965073,0 -0.7180891,0.2063086 -0.2174784,0.2001501 -0.2174784,0.594292 v 1.7490045 z"
       id="text1" />
  </g>
</svg>
