<?xml version="1.0" encoding="UTF-8" standalone="no"?>
<!-- Created with Inkscape (http://www.inkscape.org/) -->

<svg
   width="544"
   height="480"
   viewBox="0 0 143.93333 127"
   version="1.1"
   id="svg1"
   sodipodi:docname="404_source.svg"
   inkscape:version="1.3.2 (091e20ef0f, 2023-11-25)"
   inkscape:export-filename="deploy/404.svg"
   inkscape:export-xdpi="96"
   inkscape:export-ydpi="96"
   xmlns:inkscape="http://www.inkscape.org/namespaces/inkscape"
   xmlns:sodipodi="http://sodipodi.sourceforge.net/DTD/sodipodi-0.dtd"
   xmlns:xlink="http://www.w3.org/1999/xlink"
   xmlns="http://www.w3.org/2000/svg"
   xmlns:svg="http://www.w3.org/2000/svg">
  <sodipodi:namedview
     id="namedview1"
     pagecolor="#ffffff"
     bordercolor="#000000"
     borderopacity="0.25"
     inkscape:showpageshadow="2"
     inkscape:pageopacity="0.0"
     inkscape:pagecheckerboard="0"
     inkscape:deskcolor="#d1d1d1"
     inkscape:document-units="mm"
     inkscape:zoom="1.1893044"
     inkscape:cx="235.85215"
     inkscape:cy="248.46456"
     inkscape:window-width="1920"
     inkscape:window-height="1200"
     inkscape:window-x="0"
     inkscape:window-y="0"
     inkscape:window-maximized="0"
     inkscape:current-layer="layer1" />
  <defs
     id="defs1">
    <pattern
       inkscape:collect="always"
       xlink:href="#shading5"
       preserveAspectRatio="xMidYMid"
       id="pattern69"
       patternTransform="matrix(0.2,0,0,0.2,3.9327331,5.8204449)" />
    <pattern
       patternUnits="userSpaceOnUse"
       width="349.7577"
       height="27.6099"
       patternTransform="scale(0.2)"
       preserveAspectRatio="xMidYMid"
       id="shading5"
       style="fill:#000000"
       inkscape:label="Lines shading big"
       inkscape:collect="always"
       inkscape:isstock="true">
      <path
         id="path37"
         style="stroke-width:0.487199;stroke-linecap:square;paint-order:markers fill stroke;stop-color:#000000"
         d="m 349.5257,0 h 0.232 v 27.6099 h -0.232 z m -18.396,0 h 1.0542 v 27.6099 h -1.0542 z m -18.3961,0 h 1.8765 v 27.6099 h -1.8765 z m -18.3961,0 h 2.6988 v 27.6099 h -2.6988 z m -18.3961,0 h 3.5211 v 27.6099 h -3.5211 z m -18.3961,0 h 4.3434 v 27.6099 h -4.3434 z m -18.3961,0 h 5.1658 v 27.6099 h -5.1658 z m -18.3961,0 h 5.9881 v 27.6099 h -5.9881 z M 202.357,0 h 6.8104 v 27.6099 h -6.8104 z m -18.3961,0 h 7.6327 v 27.6099 h -7.6327 z m -18.3961,0 h 8.455 v 27.6099 h -8.455 z m -18.3961,0 h 9.2773 v 27.6099 h -9.2773 z m -18.396,0 h 10.0995 v 27.6099 h -10.0995 z m -18.3961,0 h 10.9218 V 27.6099 H 110.3766 Z M 91.9805,0 h 11.7441 V 27.6099 H 91.9805 Z M 73.5844,0 H 86.1509 V 27.6099 H 73.5844 Z M 55.1883,0 H 68.5771 V 27.6099 H 55.1883 Z M 36.7922,0 H 51.0033 V 27.6099 H 36.7922 Z M 18.3961,0 H 33.4295 V 27.6099 H 18.3961 Z M 0,0 H 15.8557 V 27.6099 H 0 Z"
         sodipodi:nodetypes="cccccccccc" />
    </pattern>
    <clipPath
       clipPathUnits="userSpaceOnUse"
       id="clipPath51">
      <path
         id="path66"
         style="stroke-width:0.0999999;stroke-linecap:square;paint-order:markers fill stroke;stop-color:#000000"
         d="m 1806.4991,-753.5228 h 1637.2646 v 66.90533 H 1806.4991 Z" />
    </clipPath>
    <clipPath
       clipPathUnits="userSpaceOnUse"
       id="clipPath55">
      <path
         id="path55"
         style="stroke-width:0.1;stroke-linecap:square;paint-order:markers fill stroke;stop-color:#000000"
         d="m 1736.6147,-745.57287 h 1589.4765 v 72.46715 H 1736.6147 Z" />
    </clipPath>
    <pattern
       inkscape:collect="always"
       xlink:href="#Wave 3"
       preserveAspectRatio="xMidYMid"
       id="pattern45"
       patternTransform="matrix(0.5,0,0,0.5,530,595)"
       x="0"
       y="0" />
    <clipPath
       clipPathUnits="userSpaceOnUse"
       id="clipPath5">
      <rect
         style="fill:#000000;stroke:#000000;stroke-width:0;stroke-linejoin:bevel;paint-order:stroke markers fill;stop-color:#000000"
         id="rect5-4"
         width="20"
         height="200"
         x="530"
         y="595" />
    </clipPath>
    <pattern
       patternUnits="userSpaceOnUse"
       width="20"
       height="200"
       patternTransform="translate(530,595)"
       preserveAspectRatio="xMidYMid"
       style="fill:#000000"
       id="Wave 3"
       inkscape:collect="always"
       inkscape:isstock="true"
       inkscape:label="Wave 3">
      <path
         style="stroke:#000000;stroke-width:0;stroke-linejoin:bevel;paint-order:stroke markers fill;stop-color:#000000"
         d="m 515,695 v -35 c 0,-3.92609 1.06702,-7.77836 3.08697,-11.14496 l 8.82606,-14.71008 C 528.93298,630.77836 530,626.92609 530,623 v -28 h 5 v 28 c 0,3.92609 -1.06702,7.77836 -3.08697,11.14496 l -8.82606,14.71008 C 521.06702,652.22164 520,656.07391 520,660 v 35 z m 10,0 v -35 c 0,-3.92609 1.06702,-7.77836 3.08697,-11.14496 l 8.82606,-14.71008 C 538.93298,630.77836 540,626.92609 540,623 v -28 h 5 v 28 c 0,3.92609 -1.06702,7.77836 -3.08697,11.14496 l -8.82606,14.71008 C 531.06702,652.22164 530,656.07391 530,660 v 35 z m 10,0 v -35 c 0,-3.92609 1.06702,-7.77836 3.08697,-11.14496 l 8.82606,-14.71008 C 548.93298,630.77836 550,626.92609 550,623 v -28 h 5 v 28 c 0,3.92609 -1.06702,7.77836 -3.08697,11.14496 l -8.82606,14.71008 C 541.06702,652.22164 540,656.07391 540,660 v 35 z m 10,0 v -35 c 0,-3.92609 1.06702,-7.77836 3.08697,-11.14496 l 8.82606,-14.71008 C 558.93298,630.77836 560,626.92609 560,623 v -28 h 5 v 28 c 0,3.92609 -1.06702,7.77836 -3.08697,11.14496 l -8.82606,14.71008 C 551.06702,652.22164 550,656.07391 550,660 v 35 z m 10,0 v -35 c 0,-3.92609 1.06702,-7.77836 3.08697,-11.14496 l 8.82606,-14.71008 C 568.93298,630.77836 570,626.92609 570,623 v -28 h 5 v 28 c 0,3.92609 -1.06702,7.77836 -3.08697,11.14496 l -8.82606,14.71008 C 561.06702,652.22164 560,656.07391 560,660 v 35 z m 10,0 v -35 c 0,-3.92609 1.06702,-7.77836 3.08697,-11.14496 l 8.82606,-14.71008 C 578.93298,630.77836 580,626.92609 580,623 v -28 h 5 v 28 c 0,3.92609 -1.06702,7.77836 -3.08697,11.14496 l -8.82606,14.71008 C 571.06702,652.22164 570,656.07391 570,660 v 35 z m 10,0 v -35 c 0,-3.92609 1.06702,-7.77836 3.08697,-11.14496 l 8.82606,-14.71008 C 588.93298,630.77836 590,626.92609 590,623 v -28 h 5 v 28 c 0,3.92609 -1.06702,7.77836 -3.08697,11.14496 l -8.82606,14.71008 C 581.06702,652.22164 580,656.07391 580,660 v 35 z m -65,100 v -35 c 0,-3.92609 1.06702,-7.77836 3.08697,-11.14496 l 8.82606,-14.71008 C 523.93298,730.77836 525,726.92609 525,723 v -28 h 5 v 28 c 0,3.92609 -1.06702,7.77836 -3.08697,11.14496 l -8.82606,14.71008 C 516.06702,752.22164 515,756.07391 515,760 v 35 z m 10,0 v -35 c 0,-3.92609 1.06702,-7.77836 3.08697,-11.14496 l 8.82606,-14.71008 C 533.93298,730.77836 535,726.92609 535,723 v -28 h 5 v 28 c 0,3.92609 -1.06702,7.77836 -3.08697,11.14496 l -8.82606,14.71008 C 526.06702,752.22164 525,756.07391 525,760 v 35 z m 10,0 v -35 c 0,-3.92609 1.06702,-7.77836 3.08697,-11.14496 l 8.82606,-14.71008 C 543.93298,730.77836 545,726.92609 545,723 v -28 h 5 v 28 c 0,3.92609 -1.06702,7.77836 -3.08697,11.14496 l -8.82606,14.71008 C 536.06702,752.22164 535,756.07391 535,760 v 35 z m 10,0 v -35 c 0,-3.92609 1.06702,-7.77836 3.08697,-11.14496 l 8.82606,-14.71008 C 553.93298,730.77836 555,726.92609 555,723 v -28 h 5 v 28 c 0,3.92609 -1.06702,7.77836 -3.08697,11.14496 l -8.82606,14.71008 C 546.06702,752.22164 545,756.07391 545,760 v 35 z m 10,0 v -35 c 0,-3.92609 1.06702,-7.77836 3.08697,-11.14496 l 8.82606,-14.71008 C 563.93298,730.77836 565,726.92609 565,723 v -28 h 5 v 28 c 0,3.92609 -1.06702,7.77836 -3.08697,11.14496 l -8.82606,14.71008 C 556.06702,752.22164 555,756.07391 555,760 v 35 z m 10,0 v -35 c 0,-3.92609 1.06702,-7.77836 3.08697,-11.14496 l 8.82606,-14.71008 C 573.93298,730.77836 575,726.92609 575,723 v -28 h 5 v 28 c 0,3.92609 -1.06702,7.77836 -3.08697,11.14496 l -8.82606,14.71008 C 566.06702,752.22164 565,756.07391 565,760 v 35 z m 10,0 v -35 c 0,-3.92609 1.06702,-7.77836 3.08697,-11.14496 l 8.82606,-14.71008 C 583.93298,730.77836 585,726.92609 585,723 v -28 h 5 v 28 c 0,3.92609 -1.06702,7.77836 -3.08697,11.14496 l -8.82606,14.71008 C 576.06702,752.22164 575,756.07391 575,760 v 35 z"
         id="path5-2"
         sodipodi:nodetypes="ccccccccc"
         clip-path="url(#clipPath5)"
         transform="translate(-530,-595)" />
    </pattern>
  </defs>
  <g
     inkscape:label="Layer 1"
     inkscape:groupmode="layer"
     id="layer1">
    <path
       style="color:#000000;opacity:0.08830549;fill:url(#pattern69);fill-opacity:1;stroke:#000000;stroke-width:0.0211667;stroke-linecap:round;stroke-linejoin:round;stroke-dasharray:none;stroke-opacity:1;paint-order:stroke fill markers"
       d="m 31.188592,25.08607 c -4.833535,0.164683 -9.407271,0.858702 -13.570312,2.591797 -1.952615,0.812884 -4.512775,3.379011 -5.017578,6.113281 -0.504803,2.73427 0.318624,4.510025 0.929687,5.669922 1.222126,2.319793 2.377258,3.228166 3.691407,4.214844 3.70398,2.780971 7.580785,4.096428 10.851562,5.328125 5.492431,2.068317 10.969865,3.424803 15.722656,4.986328 2.136642,0.701991 4.293211,1.448833 6.425781,2.164062 -0.150503,0.484758 -0.340627,0.919041 -0.390625,1.519532 -0.163367,1.962112 0.697643,4.20248 1.720704,5.425781 2.6666,3.188531 5.290727,4.317059 8.517578,5.951172 3.22685,1.634112 6.909127,3.211355 10.5625,4.677734 4.224518,1.695624 6.282885,2.393315 9.455078,3.546875 -0.407993,-0.01824 -0.626409,-0.03397 -1.035156,-0.05078 -5.975414,-0.245722 -11.650795,-0.481768 -16.560547,0.43164 -2.697541,0.501851 -5.442134,1.259863 -8.232422,3.419922 -2.763407,2.139245 -4.127071,7.125187 -3.384766,9.960938 0.742305,2.835751 2.046702,4.317916 3.179688,5.625 1.132985,1.307083 2.255069,2.333592 3.154297,3.142578 0.63558,0.571799 0.814044,0.731199 1,0.892579 a 7.3436999,7.3436999 0 0 0 -0.652344,1.57422 7.3436999,7.3436999 0 0 0 7.34375,7.34375 c 0.381929,0 0.586829,0.0314 1.398437,0.006 0.405805,-0.0128 0.987715,0.0176 2.189453,-0.3457 1.201739,-0.36332 3.33935,-1.62177 4.41211,-3.51368 2.14552,-3.7838 0.903453,-5.06252 0.810547,-5.54883 -0.09291,-0.4863 -0.122665,-0.597208 -0.160157,-0.861324 -0.377306,-2.657981 -1.905034,-5.343433 -3.496093,-7.328125 2.64643,-0.09331 4.7999,-0.272819 8.394531,-0.125 5.682994,0.233697 11.459712,0.651689 15.359375,0.751953 0.694392,0.01785 4.454647,0.262252 8.214847,0.183594 1.8801,-0.03933 3.83338,-0.145901 5.83398,-0.482422 2.00059,-0.336521 4.09244,-0.54795 6.77148,-2.783203 1.73882,-1.450778 3.18329,-5.033271 2.78125,-7.439453 -0.40204,-2.406182 -1.38743,-3.480904 -2.04101,-4.240235 -1.30717,-1.518661 -2.21715,-2.025558 -2.64453,-2.341797 -1.31407,-0.972336 -2.65027,-1.766913 -3.97071,-2.476562 0.32685,-0.242846 0.5631,-0.258166 0.91992,-0.634766 1.0198,-1.076315 1.99633,-3.027985 2.07032,-4.902343 0.11349,-2.879309 -1.113,-4.362965 -1.76953,-5.150391 -0.65654,-0.787426 -1.1205,-1.123077 -1.50586,-1.40625 -0.77073,-0.566345 -1.28134,-0.820784 -1.80274,-1.085938 -1.0428,-0.530306 -2.05011,-0.947263 -3.08398,-1.357421 -2.06775,-0.820318 -4.104097,-1.519036 -4.787109,-1.75 C 94.943999,55.481414 91.183172,54.423439 87.758905,53.298961 75.514288,49.27801 63.338017,45.010176 50.936639,40.89857 c 7.66611,0.759897 15.050162,1.730858 19.578125,2.333984 7.977552,1.062611 27.789528,4.051243 36.003906,5.570313 4.14744,0.766979 8.68541,2.00004 13.56054,2.847656 2.44006,0.424239 4.26395,0.598865 8.89258,0.738281 a 7.3436999,7.3436999 0 0 0 7.56055,-7.121093 7.3436999,7.3436999 0 0 0 -7.11914,-7.560547 c -4.4834,-0.135042 -4.70492,-0.15794 -6.81836,-0.525391 -3.94178,-0.685338 -8.45953,-1.905887 -13.4043,-2.820312 -8.94599,-1.654367 -28.361832,-4.572017 -36.736323,-5.6875 C 67.01013,27.948806 56.712957,26.437409 46.313592,25.670054 41.11391,25.286377 36.022128,24.921387 31.188592,25.08607 Z m 27.839844,76.43945 c 0.110958,0.73847 0.241324,1.3775 0.253906,1.44336 0.0082,0.043 -0.359996,-0.378 -0.253906,-1.44336 z"
       id="path51" />
    <path
       style="color:#000000;fill:url(#pattern45);stroke-linecap:round;stroke-linejoin:round;paint-order:stroke fill markers;opacity:0.2;fill-opacity:1;stroke:#000000;stroke-opacity:1;stroke-width:0.0211667;stroke-dasharray:none"
       d="m 27.255859,19.265625 c -4.833535,0.164683 -9.407271,0.858702 -13.570312,2.591797 -1.952615,0.812884 -4.5127755,3.379011 -5.0175782,6.113281 -0.5048028,2.73427 0.3186246,4.510025 0.9296875,5.669922 1.2221257,2.319793 2.3772577,3.228166 3.6914067,4.214844 3.70398,2.780971 7.580785,4.096428 10.851562,5.328125 5.492431,2.068317 10.969865,3.424803 15.722656,4.986328 2.136642,0.701991 4.293211,1.448833 6.425781,2.164062 -0.150503,0.484758 -0.340627,0.919041 -0.390625,1.519532 -0.163367,1.962112 0.697643,4.20248 1.720704,5.425781 2.6666,3.188531 5.290727,4.317059 8.517578,5.951172 3.22685,1.634112 6.909127,3.211355 10.5625,4.677734 4.224518,1.695624 6.282885,2.393315 9.455078,3.546875 -0.407993,-0.01824 -0.626409,-0.03397 -1.035156,-0.05078 -5.975414,-0.245722 -11.650795,-0.481768 -16.560547,0.43164 -2.697541,0.501851 -5.442134,1.259863 -8.232422,3.419922 -2.763407,2.139245 -4.127071,7.125187 -3.384766,9.960938 0.742305,2.835751 2.046702,4.317916 3.179688,5.625 1.132985,1.307083 2.255069,2.333592 3.154297,3.142578 0.63558,0.571797 0.814044,0.731202 1,0.892578 a 7.3436999,7.3436999 0 0 0 -0.652344,1.574219 7.3436999,7.3436999 0 0 0 7.34375,7.343748 c 0.381929,0 0.586829,0.0314 1.398437,0.006 0.405805,-0.0128 0.987715,0.0176 2.189453,-0.3457 1.201739,-0.36332 3.33935,-1.62177 4.41211,-3.513674 2.14552,-3.783803 0.903453,-5.062523 0.810547,-5.548828 -0.09291,-0.486304 -0.122665,-0.597212 -0.160157,-0.861328 -0.377306,-2.657981 -1.905034,-5.343433 -3.496093,-7.328125 2.64643,-0.09331 4.7999,-0.272819 8.394531,-0.125 5.682994,0.233697 11.459712,0.651689 15.359375,0.751953 0.694392,0.01785 4.454647,0.262252 8.214844,0.183594 1.880098,-0.03933 3.833386,-0.145901 5.833986,-0.482422 2.00059,-0.336521 4.09244,-0.54795 6.77148,-2.783203 1.73882,-1.450778 3.18329,-5.033271 2.78125,-7.439453 -0.40204,-2.406182 -1.38743,-3.480904 -2.04101,-4.240235 -1.30717,-1.518661 -2.21715,-2.025558 -2.64453,-2.341797 -1.31407,-0.972336 -2.65027,-1.766913 -3.97071,-2.476562 0.32685,-0.242846 0.5631,-0.258166 0.91992,-0.634766 1.0198,-1.076315 1.99633,-3.027985 2.07032,-4.902343 0.11349,-2.879309 -1.113,-4.362965 -1.76953,-5.150391 -0.65654,-0.787426 -1.1205,-1.123077 -1.50586,-1.40625 -0.77073,-0.566345 -1.28134,-0.820784 -1.80274,-1.085938 -1.0428,-0.530306 -2.05011,-0.947263 -3.083983,-1.357421 -2.06775,-0.820318 -4.104097,-1.519036 -4.787109,-1.75 C 91.011266,49.660969 87.250439,48.602994 83.826172,47.478516 71.581555,43.457565 59.405284,39.189731 47.003906,35.078125 c 7.66611,0.759897 15.050162,1.730858 19.578125,2.333984 7.977552,1.062611 27.789528,4.051243 36.003909,5.570313 4.14744,0.766979 8.68541,2.00004 13.56054,2.847656 2.44006,0.424239 4.26395,0.598865 8.89258,0.738281 a 7.3436999,7.3436999 0 0 0 7.56055,-7.121093 7.3436999,7.3436999 0 0 0 -7.11914,-7.560547 c -4.4834,-0.135042 -4.70492,-0.15794 -6.81836,-0.525391 -3.94178,-0.685338 -8.45953,-1.905887 -13.4043,-2.820312 -8.945994,-1.654367 -28.361835,-4.572017 -36.736326,-5.6875 -5.444087,-0.725155 -15.74126,-2.236552 -26.140625,-3.003907 -5.199682,-0.383677 -10.291464,-0.748667 -15.125,-0.583984 z m 27.839844,76.439453 c 0.110958,0.738469 0.241324,1.3775 0.253906,1.443359 0.0082,0.04298 -0.359996,-0.378 -0.253906,-1.443359 z"
       id="path29" />
    <path
       style="color:#000000;stroke-linecap:round;stroke-linejoin:round;-inkscape-stroke:none;paint-order:stroke fill markers"
       d="m 75.673665,67.402531 c -1.028349,-0.17842 -1.590213,0.310384 -2.013672,0.646484 -0.423459,0.336101 -0.76361,0.700018 -1.060547,1.013672 -0.02338,0.0247 -0.02579,0.02473 -0.04883,0.04883 -0.61657,-0.339877 -1.293707,-0.521206 -1.921875,-0.455078 -1.111359,0.116994 -2.201389,0.693023 -2.816406,1.810547 -0.41841,0.760273 -0.539686,1.526876 -0.580078,2.291016 -0.08071,0.541714 -0.160397,1.080938 -0.242188,1.613281 -0.372762,2.426063 -0.749136,4.852672 -1.123047,7.28125 -0.05765,0.179958 -0.100725,0.291845 -0.154296,0.478516 -0.148958,0.519135 -0.172636,0.973739 -0.191407,1.333984 -0.0047,0.09008 -0.01231,0.207704 0.03711,0.421875 0.02471,0.107086 0.155877,0.40364 0.15625,0.404297 3.72e-4,6.57e-4 0.46629,0.503565 0.466797,0.503906 5.06e-4,3.42e-4 0.737649,0.251911 0.738281,0.251953 6.31e-4,4.3e-5 0.5598,-0.06812 0.560547,-0.06836 7.46e-4,-2.4e-4 0.232208,-0.09455 0.30664,-0.138672 0.07443,-0.04412 0.128536,-0.08272 0.171875,-0.117188 0.346713,-0.275703 0.309831,-0.324745 0.359375,-0.402343 0.09909,-0.155197 0.152002,-0.104845 0.25586,-0.619141 0.103512,-0.515749 0.158649,-0.975975 0.220703,-1.396484 0.44323,-1.292284 1.096579,-2.646508 1.378906,-4.38086 0.188791,-1.159713 0.05897,-2.395321 0.03516,-3.585937 -0.02381,-1.190617 0.155314,-2.30182 0.22461,-2.427735 0.04727,-0.08589 0.294502,-0.254682 0.509765,-0.277343 0.215263,-0.02266 0.14952,-0.02344 0.144532,-0.0332 0.125535,0.245809 0.367672,0.551129 0.724609,0.736328 0.356937,0.185199 0.761035,0.207458 1.039062,0.162109 0.556055,-0.0907 0.767151,-0.295893 0.966797,-0.451172 0.399292,-0.310557 0.66741,-0.621916 0.955078,-0.925781 0.212331,-0.224284 0.3869,-0.384637 0.552735,-0.537109 0.01884,0.0698 0.03545,0.07751 0.04297,0.208984 0.01491,0.260587 -0.01423,0.606287 -0.05859,0.9375 -0.04437,0.331209 -0.117195,0.554135 -0.117195,1.046871 2.46e-4,0.826168 0.669926,1.495848 1.496094,1.496094 0.826168,-2.46e-4 1.495848,-0.669926 1.496094,-1.496094 0,0.146788 0.03733,-0.243724 0.0918,-0.650391 0.05447,-0.406666 0.113342,-0.922405 0.08008,-1.503906 -0.03326,-0.5815 -0.153514,-1.261497 -0.587891,-1.910156 -0.434382,-0.648659 -1.225638,-1.159586 -2.095708,-1.310547 z"
       id="path8"
       sodipodi:nodetypes="ssscsscsccssssssscsccsssscsssscsscccssss" />
    <path
       style="color:#000000;stroke-linecap:round;stroke-linejoin:round;-inkscape-stroke:none;paint-order:stroke fill markers"
       d="m 57.193196,67.236515 c -0.8183,-0.120752 -1.57937,0.445239 -1.699218,1.263672 -0.694357,4.731594 -1.387681,9.463717 -2.082032,14.195313 -0.258874,1.829169 2.377378,2.412254 2.914063,0.644531 0.193535,-0.648137 0.280304,-1.113146 0.388672,-1.349609 1.497286,-3.267228 4.904248,-9.148066 7.224609,-11.210938 0.307372,-0.273266 0.374127,-0.269911 0.535156,-0.357422 0.03276,0.209298 0.151277,0.483318 0.0625,1.216797 -0.09601,0.793266 -0.151948,0.974999 -0.21875,1.306641 -0.06717,0.03297 -0.168649,-0.01667 -0.220703,0.02539 -0.388228,0.313688 -0.449894,0.558234 -0.511719,0.72461 -0.123648,0.33275 -0.138201,0.527909 -0.173828,0.822265 -0.09959,0.820975 0.388255,1.455862 1.209311,1.756394 0.514347,0.100015 0.846058,0.0439 1.749677,-0.648976 0.561883,-0.430844 0.57896,-0.741064 0.673828,-1.03125 0.189735,-0.580371 0.305024,-1.291398 0.46289,-2.595703 0.171223,-1.414657 0.248782,-2.832742 -0.863281,-4.027344 -0.556031,-0.597301 -1.57767,-0.907462 -2.412109,-0.730468 -0.834439,0.176993 -1.531207,0.635916 -2.28125,1.302734 -1.47418,1.310591 -2.915768,3.27178 -4.21875,5.326172 0.241347,-1.644645 0.481306,-3.288951 0.722656,-4.933594 0.120814,-0.817641 -0.444078,-1.578408 -1.261719,-1.699219 z"
       id="path10"
       sodipodi:nodetypes="sccccscscssccssssssccss" />
    <path
       style="color:#000000;stroke-linecap:round;stroke-linejoin:round;-inkscape-stroke:none;paint-order:stroke fill markers"
       d="m 85.197103,67.746281 c -0.633428,0.09814 -1.145128,0.482303 -1.603516,0.90625 -0.102179,-0.129255 -0.141149,-0.258258 -0.300781,-0.378906 -0.361942,-0.273551 -0.927145,-0.435564 -1.396485,-0.382813 -0.987526,0.110994 -1.621319,0.641859 -2.216797,1.232422 -0.595477,0.590563 -1.139738,1.320215 -1.658203,2.154297 -1.036928,1.668165 -1.951962,3.744851 -2.488281,5.808594 -0.536319,2.063742 -0.794091,4.123174 0.06445,5.916015 0.429272,0.896421 1.247848,1.687214 2.285156,2.03125 1.037309,0.344037 1.954288,-0.295115 3.29816,-0.295115 1.689733,0 -1.339405,5.758728 1.46084,5.739692 2.793969,-0.01899 -0.876859,-5.419893 1.920875,-6.762551 1.158963,-0.862673 2.510125,-1.853924 3.373605,-3.193281 1.718874,-2.666167 2.007497,-6.632899 1.245349,-9.164524 -0.381075,-1.265813 -0.911809,-2.384846 -1.976563,-3.123047 -0.532377,-0.3691 -1.273911,-0.601985 -2.007812,-0.488281 z m 0.361328,3.058594 c 0.134629,0.129413 0.510435,0.600791 0.755859,1.416015 0.528793,1.756487 0.442764,4.469698 -0.587891,6.06836 -0.681497,1.05708 -1.499068,1.928857 -2.339843,2.554687 -0.823912,0.613252 -1.755447,0.99623 -2.748047,1.251953 -0.938346,0.241759 -1.520369,0.194546 -1.8125,0.09766 -0.292131,-0.09689 -0.385865,-0.188934 -0.527344,-0.484375 -0.282958,-0.590884 -0.316519,-2.149592 0.130859,-3.871094 0.447379,-1.721502 1.275534,-3.598174 2.134766,-4.980469 0.330448,-0.531609 0.642431,-0.895104 0.941406,-1.238281 0.07501,0.694841 0.109585,1.469329 0.359375,2.300781 0.426103,1.415163 2.427502,1.422013 2.863282,0.0098 0.243079,-0.787744 0.336566,-1.536756 0.46289,-2.123047 0.126324,-0.586291 0.317246,-0.947432 0.328125,-0.958985 0.05231,-0.05555 0.0098,-0.01937 0.03906,-0.04297 z"
       id="path12"
       sodipodi:nodetypes="scssssssssscssssscssssssssccssscc" />
    <path
       style="color:#000000;stroke-linecap:round;stroke-linejoin:round;-inkscape-stroke:none;paint-order:stroke fill markers"
       d="m 90.368978,68.076359 c -0.749696,-0.347034 -1.638789,-0.02095 -1.986329,0.728516 -0.348603,0.749675 -0.02326,1.639995 0.726563,1.988281 1.706278,0.791071 2.223476,1.49874 2.416016,2.126953 0.192539,0.628213 0.06752,1.476663 -0.337891,2.568359 -0.405415,1.091697 -1.055021,2.333821 -1.548828,3.673829 -0.493807,1.340008 -0.86929,2.880713 -0.341797,4.464843 0.03468,0.104156 0.07603,0.226337 0.195312,0.410157 0.119282,0.183819 0.35158,0.502763 0.876954,0.652343 0.525373,0.149581 1.11611,-0.07579 1.365234,-0.271484 0.249124,-0.195696 0.329324,-0.345124 0.394531,-0.455078 0.260827,-0.439816 0.241899,-0.572442 0.296875,-0.783203 0.109952,-0.421524 0.260966,-0.963239 0.21875,-0.861328 1.231399,-2.972585 2.273117,-5.381551 3.941406,-8.15625 0.329061,-0.547291 1.164928,-1.733344 1.990235,-2.455079 0.412654,-0.360867 0.817982,-0.58951 1.046875,-0.652343 0.228893,-0.06283 0.215842,-0.07355 0.394536,0.05469 0.0376,0.02702 0.22524,0.261839 0.34375,0.708985 0.1185,0.447145 0.16929,1.042014 0.1582,1.533203 -5e-5,0.0024 6e-5,0.0015 0,0.0039 -0.29446,0.30609 -0.44498,0.722881 -0.41406,1.146484 0.0182,0.17219 0.0413,0.325392 0.084,0.5 0.0427,0.174609 0.044,0.359729 0.34961,0.736328 0.15279,0.1883 0.45443,0.467124 0.93164,0.552735 0.47721,0.08561 0.95711,-0.106447 1.19532,-0.285156 0.47641,-0.357419 0.48909,-0.57742 0.55664,-0.744141 0.27019,-0.666882 0.27297,-1.131249 0.28906,-1.84375 0.0161,-0.712501 -0.0373,-1.533106 -0.25781,-2.365234 -0.22054,-0.832129 -0.60751,-1.740074 -1.49219,-2.375 -0.88673,-0.636391 -2.033994,-0.755645 -2.929692,-0.509766 -0.895698,0.245879 -1.607184,0.743508 -2.226562,1.285156 -1.058638,0.925782 -1.713642,1.932012 -2.208985,2.705078 -0.01103,-0.03933 0.0043,-0.07582 -0.0078,-0.115234 C 93.8978,70.441978 92.536283,69.081155 90.36901,68.076356 Z"
       id="path13"
       sodipodi:nodetypes="sccssssssssscssscssccsssssscsssccss" />
    <path
       style="color:#000000;stroke-linecap:round;stroke-linejoin:round;-inkscape-stroke:none;paint-order:stroke fill markers"
       d="m 50.710774,69.394718 c -0.502595,0.01068 -1.017481,0.137502 -1.533203,0.322266 -3.340371,1.196738 -5.526289,4.317632 -6.863281,6.894531 -0.390982,0.753573 -0.750502,1.725016 -0.869141,2.822266 -0.118638,1.09725 0.01891,2.419264 0.925782,3.474609 0.95001,1.105535 2.32212,1.52304 3.710937,1.660157 1.388818,0.137117 2.879123,-0.01537 4.339844,-0.347657 1.460721,-0.332286 2.886177,-0.846482 4.115234,-1.509765 1.085099,-0.585594 1.993371,-1.301693 2.648438,-2.240235 0.07952,-0.09527 0.270144,-0.165349 0.320312,-0.251953 0.08297,-0.143229 0.139405,-0.276004 0.183594,-0.435547 0.04419,-0.159542 0.144096,-0.270299 0.02344,-0.794922 -0.03016,-0.131155 -0.0811,-0.302552 -0.222657,-0.511718 -0.03293,-0.04866 -0.07581,-0.08629 -0.136718,-0.150391 0.143155,-0.298251 0.387619,-0.726337 0.173828,-1.470703 -0.228106,-0.794477 -1.057109,-1.253577 -1.851563,-1.025391 -0.794476,0.228107 -1.253576,1.057109 -1.02539,1.851563 -0.144724,-0.503888 0.02054,-0.631671 -0.01563,-0.554688 -0.03617,0.07698 -0.157971,0.285091 -0.298829,0.56836 -0.140857,0.283268 -0.331571,0.659186 -0.345703,1.24414 -0.0025,0.102596 0.129741,0.197457 0.148438,0.308594 -0.311928,0.284541 -0.476636,0.533034 -1.023438,0.828125 -0.939548,0.507044 -2.145671,0.950912 -3.357422,1.226563 -1.21175,0.27565 -2.434797,0.380513 -3.380859,0.287109 -0.946061,-0.0934 -1.528557,-0.3933 -1.734375,-0.632813 -0.179639,-0.209048 -0.285764,-0.601392 -0.220703,-1.203125 0.02803,-0.259208 0.155394,-0.489161 0.236328,-0.759765 0.22924,0.6777 0.807758,1.118033 1.644729,1.190711 0.875648,-0.01897 1.551323,-0.448433 2.080079,-0.669624 0.7207,-0.301486 1.165439,-0.701569 1.941208,-1.4664 0.613814,-0.605163 1.21357,-1.276159 1.732422,-2.044922 0.680764,-1.008678 1.299447,-2.337006 1.300781,-3.859375 6.67e-4,-0.761184 -0.265675,-1.809791 -1.191406,-2.373046 -0.462866,-0.281628 -0.952483,-0.38763 -1.455079,-0.376954 z m -0.480468,3.119141 c -0.115615,0.550732 -0.380338,1.408532 -0.654297,1.814453 -0.370359,0.548747 -0.835432,1.079062 -1.353516,1.589844 -0.747703,0.73716 -0.93882,0.859889 -0.980469,0.876953 -0.808673,0.331329 -0.46828,0.06825 -1.509765,0.259766 -0.489552,0.229395 -0.817322,0.704996 -0.857422,1.24414 0.04084,-0.09275 0.05491,-0.229974 0.0957,-0.308593 1.145565,-2.207946 3.14451,-4.713351 5.214844,-5.455079 0.06463,-0.02315 -0.0077,-0.006 0.04492,-0.02148 z"
       id="path14"
       sodipodi:nodetypes="sssssssscssssccccssccsssssccsssssssssssccssss" />
    <path
       style="color:#000000;stroke-linecap:round;stroke-linejoin:round;-inkscape-stroke:none;paint-order:stroke fill markers"
       d="m 63.462728,24.681828 c -5.22e-4,4.8e-5 -0.569684,0.132571 -0.570313,0.132812 -6.29e-4,2.42e-4 -0.235974,0.106466 -0.314453,0.152344 -0.313917,0.183512 -0.376214,0.274451 -0.445313,0.34375 -0.276392,0.277198 -0.25453,0.297159 -0.308593,0.373047 -0.108126,0.151775 -0.203637,0.297172 -0.216797,0.316406 -0.457624,0.668866 -0.833036,1.284685 -1.203125,1.810547 -1.043736,1.483048 -1.962077,2.906117 -2.984375,4.152344 -1.556627,1.897594 -5.170277,6.012551 -8.875,9.328125 -1.852362,1.657787 -3.741574,3.117049 -5.304688,3.988281 -1.563114,0.871232 -2.670643,0.951122 -2.871093,0.878906 -0.78655,-0.283367 -0.844095,-0.436895 -1.001954,-0.986328 -0.157858,-0.549433 -0.156369,-1.594507 0.05469,-2.867187 0.422114,-2.545361 1.628502,-5.743952 1.425781,-8.9375 -0.07487,-1.178508 -1.091036,-2.073121 -2.269531,-1.998047 -1.177697,0.07488 -2.071996,1.089822 -1.998047,2.267578 0.107648,1.695819 -0.864534,4.878853 -1.376953,7.96875 -0.256209,1.544949 -0.411431,3.130552 0.05273,4.746094 0.464166,1.615542 1.80562,3.160542 3.664063,3.830078 2.237219,0.805999 4.372135,-0.03639 6.402344,-1.167969 2.030208,-1.131576 4.084303,-2.754265 6.074218,-4.535156 0.65647,-0.587513 1.190452,-1.195463 1.822266,-1.804688 -1.963026,4.391938 -3.609516,8.498956 -4.900391,13.859375 -0.484855,2.013387 -0.825736,4.068515 -0.984375,6.142578 -0.01354,0.177048 -0.167728,1.040507 -0.205078,1.900391 -0.01868,0.429942 -0.141198,0.83048 0.271485,1.716797 0.206341,0.443159 0.786829,1.134575 1.613281,1.324219 0.826452,0.189643 1.448577,-0.0882 1.818359,-0.304688 1.328518,-0.7778 1.723,-2.319008 1.783203,-3.169922 0.0602,-0.850913 0.0643,-1.427449 0.06641,-1.435547 0.190583,-0.78582 -0.07849,-1.611926 -0.695313,-2.134765 0.154669,-1.014302 0.24568,-2.031652 0.488281,-3.039063 1.485119,-6.167029 3.121883,-10.095468 5.71329,-15.636402 0.495626,-1.059745 2.928191,-3.306028 1.597257,-3.383129 -5.707588,-0.330639 1.144506,13.915391 2.421155,-4.181817 0.12364,-1.752658 2.659412,-4.372632 3.479236,-6.808417 0.02441,-0.07252 0.0562,-0.156454 0.08984,-0.369141 0.01682,-0.106343 0.04017,-0.244974 0.02148,-0.498047 -0.0093,-0.126536 -0.09357,-0.487716 -0.09375,-0.488281 -1.79e-4,-5.65e-4 -0.398141,-0.728161 -0.398438,-0.728516 -2.96e-4,-3.54e-4 -0.907792,-0.636568 -0.908203,-0.636718 -4.1e-4,-1.5e-4 -0.933072,-0.121143 -0.933593,-0.121094 z"
       id="path17"
       sodipodi:nodetypes="ssssscssssssscccssssscssssscsccsssssscsssss" />
    <path
       style="color:#000000;stroke-linecap:round;stroke-linejoin:round;-inkscape-stroke:none;paint-order:stroke fill markers"
       d="m 79.587728,30.707218 c -2.33063,0.221629 -4.405137,1.370103 -5.857422,3.007813 -0.01303,0.0147 -0.01645,0.0302 -0.0293,0.04492 a 2.1379149,2.1379149 0 0 0 -0.01563,0.0078 c -4.468208,5.38086 -10.460593,10.405982 -14.134766,17.082032 -2.562877,4.656787 -3.084415,9.342854 -0.609375,12.458984 1.23752,1.558065 3.258802,2.439688 5.4375,2.417969 2.178699,-0.02172 4.549432,-0.808205 7.16211,-2.347657 2.959476,-1.743794 4.979961,-4.234993 6.746093,-6.429687 1.738221,-2.160045 4.137755,-6.012427 5.945313,-10.181641 1.807558,-4.169213 3.302095,-8.574543 1.662109,-12.361328 -1.175388,-2.714014 -3.976011,-3.920847 -6.30664,-3.699219 z m 0.404296,4.257813 c 1.018537,-0.09686 1.462666,-0.05049 1.978516,1.140625 0.584682,1.350052 -0.02949,5.199738 -1.660156,8.960937 -1.630664,3.7612 -3.999141,7.515696 -5.355469,9.201172 -1.738654,2.160548 -3.4472,4.166737 -5.583984,5.425782 -2.170047,1.278642 -3.899932,1.746495 -5.035157,1.757812 -1.135224,0.01132 -1.643174,-0.294467 -2.046875,-0.802734 -0.8074,-1.016535 -1.061087,-3.977105 1.007813,-7.736328 2.141534,-3.891212 5.492956,-7.487874 8.927734,-11.169922 a 2.1379149,2.1379149 0 0 0 0.712891,0.617187 2.1379149,2.1379149 0 0 0 2.703125,-1.357422 c 0.759355,-2.293687 0.725844,-3.814089 1.289062,-4.449218 0.663078,-0.747738 2.043964,-1.491034 3.0625,-1.587891 z"
       id="path26" />
    <path
       style="color:#000000;stroke-linecap:round;stroke-linejoin:round;-inkscape-stroke:none;paint-order:stroke fill markers"
       d="m 107.28109,24.843937 c -7.1e-4,-1.8e-5 -0.30313,0.0086 -0.43945,0.0332 -0.13632,0.02461 -0.25898,0.06042 -0.36914,0.101563 -0.22033,0.08229 -0.38505,0.183627 -0.51172,0.27539 -0.25334,0.183527 -0.37075,0.334916 -0.45899,0.451172 a 2.1381287,2.1381287 0 0 0 -0.002,0.002 c -0.17797,0.235116 -0.14642,0.203957 -0.26172,0.371094 -0.1153,0.167138 -0.27339,0.396897 -0.47265,0.681641 -0.39853,0.569488 -0.95776,1.356341 -1.63282,2.271484 -1.35012,1.830286 -3.168167,4.176506 -5.078126,6.298828 -1.909958,2.122323 -3.960308,4.019486 -5.474609,4.90625 -0.75715,0.443383 -1.351697,0.596318 -1.578125,0.59961 -0.226428,0.0033 -0.118052,0.0799 -0.318359,-0.177735 -1.087578,-1.398846 -1.081497,-3.063659 -0.613282,-5.453125 0.468216,-2.389466 1.466438,-5.159803 1.566407,-8.136718 a 2.1379149,2.1379149 0 0 0 -2.064453,-2.208985 2.1379149,2.1379149 0 0 0 -2.208985,2.066406 c -0.06765,2.014528 -0.939748,4.647709 -1.490234,7.457032 -0.550486,2.809323 -0.712783,6.137199 1.435547,8.90039 0.902762,1.161134 2.398455,1.847859 3.755859,1.828125 1.357405,-0.01973 2.542432,-0.521865 3.675781,-1.185547 1.059721,-0.620565 2.093722,-1.443441 3.109375,-2.347656 -1.060789,2.620642 -2.16712,5.217905 -3.115234,8.410156 -1.347146,4.535773 -2.360668,9.08826 -1.986328,12.794922 0.04583,0.454295 0.330507,1.271859 1.046875,1.728516 0.716368,0.456657 1.394566,0.38009 1.757812,0.300781 0.726494,-0.158618 0.926605,-0.369114 1.179688,-0.533203 0.506166,-0.328178 1.048553,-0.661943 0.802734,-0.552734 a 2.1379149,2.1379149 0 0 0 1.085938,-2.822266 2.1379149,2.1379149 0 0 0 -1.4375,-1.121094 c 0.19478,-2.459208 0.709336,-5.407691 1.65039,-8.576172 1.276689,-4.298523 2.969369,-8.611122 4.228519,-11.416015 1.35968,-3.028844 2.98825,-6.036334 4.60156,-9.111328 0.31589,-0.602063 0.8862,-1.355905 1.42774,-2.373047 0.42657,-0.802612 0.2843,-0.833861 0.29297,-1.167969 0.004,-0.167054 0.11422,-0.244719 -0.15821,-0.931641 -0.0681,-0.17173 -0.16935,-0.409067 -0.45703,-0.707031 -0.14384,-0.148981 -0.34169,-0.310374 -0.60156,-0.4375 -0.12994,-0.06356 -0.42511,-0.156081 -0.42578,-0.15625 -6.8e-4,-1.68e-4 -0.46023,-0.06248 -0.46094,-0.0625 z"
       id="path27" />
  </g>
</svg>
