<?xml version="1.0" encoding="UTF-8" standalone="no"?>
<!-- Created with Inkscape (http://www.inkscape.org/) -->

<svg
   width="384"
   height="63.999996"
   viewBox="0 0 101.60042 16.933334"
   version="1.1"
   id="svg1"
   xmlns:xlink="http://www.w3.org/1999/xlink"
   xmlns="http://www.w3.org/2000/svg"
   xmlns:svg="http://www.w3.org/2000/svg">
  <defs
     id="defs1">
    <pattern
       xlink:href="#Checkerboard"
       preserveAspectRatio="xMidYMid"
       id="pattern171"
       patternTransform="scale(3)"
       x="0"
       y="0" />
    <pattern
       xlink:href="#Checkerboard"
       preserveAspectRatio="xMidYMid"
       id="pattern170"
       patternTransform="scale(3)"
       x="0"
       y="0" />
    <pattern
       style="fill:#4a2605"
       patternUnits="userSpaceOnUse"
       width="2"
       height="2"
       patternTransform="translate(0,0) scale(10,10)"
       id="Checkerboard"
       preserveAspectRatio="xMidYMid">
      <rect
   style="stroke:none"
   x="0"
   y="0"
   width="1"
   height="1"
   id="rect209" />

      <rect
   style="stroke:none"
   x="1"
   y="1"
   width="1"
   height="1"
   id="rect211" />

    </pattern>
    <pattern
       xlink:href="#Strips1_1"
       preserveAspectRatio="xMidYMid"
       id="pattern160"
       patternTransform="matrix(1.4142136,-1.4142136,1.4142136,1.4142136,0,0)"
       x="0"
       y="0" />
    <pattern
       patternUnits="userSpaceOnUse"
       width="2"
       height="10"
       patternTransform="translate(0,0) scale(2,2)"
       preserveAspectRatio="xMidYMid"
       id="Strips1_1"
       style="fill:#4a2605">
      <rect
   style="stroke:none"
   x="0"
   y="-0.5"
   width="1"
   height="11"
   id="rect134" />

    </pattern>
  </defs>
  <g
     id="layer1">
    <path
       style="opacity:1;fill:#edcd19;fill-opacity:1;stroke:#4a2605;stroke-width:3.63979;stroke-linecap:round;stroke-linejoin:round;stroke-dasharray:none;stroke-opacity:1;paint-order:stroke fill markers"
       d="M 34.925002,24.341666 V 13.758333 A 1.0583331,1.0583331 135 0 1 35.983335,12.7 h 1.058334 a 1.0583331,1.0583331 45 0 1 1.058333,1.058333 v 1.058333 L 42.333335,12.7 h 2.116667 a 1.0583331,1.0583331 45 0 1 1.058333,1.058333 v 10.583333 a 1.0583328,1.0583328 135 0 1 -1.058333,1.058333 H 43.391668 A 1.0583328,1.0583328 45 0 1 42.333335,24.341666 V 18.12324 A 0.73540292,0.73540292 31.717477 0 0 41.26905,17.465475 l -2.222445,1.111223 a 1.7124202,1.7124202 121.71748 0 0 -0.946603,1.531635 v 4.233333 a 1.0583328,1.0583328 135 0 1 -1.058333,1.058333 h -1.058334 a 1.0583328,1.0583328 45 0 1 -1.058333,-1.058333 z"
       id="path2-0"
       transform="matrix(0.44763866,0,-0.3136769,0.75548291,82.322567,-4.1855096)" />
    <path
       style="opacity:1;fill:#edcd19;fill-opacity:1;stroke:#4a2605;stroke-width:3.63979;stroke-linecap:round;stroke-linejoin:round;stroke-dasharray:none;stroke-opacity:1;paint-order:stroke fill markers"
       d="M 73.025007,24.341666 V 13.758332 A 1.0583325,1.0583325 135 0 1 74.08334,12.7 h 1.058334 a 1.0583331,1.0583331 45 0 1 1.058333,1.058333 v 1.058333 l 3.132923,-1.566461 a 2.4605929,2.4605929 180 0 1 2.20082,0 l 0.06965,0.03483 a 1.7124191,1.7124191 58.28252 0 1 0.946602,1.531634 v 1e-6 a 1.7124191,1.7124191 121.71748 0 1 -0.946602,1.531634 l -1.170065,0.585032 -3.28673,1.643365 a 1.7124202,1.7124202 121.71748 0 0 -0.946603,1.531635 v 4.233332 a 1.0583341,1.0583341 135 0 1 -1.058334,1.058334 H 74.08334 a 1.0583328,1.0583328 45 0 1 -1.058333,-1.058333 z"
       id="path2-6-4"
       transform="matrix(0.44763866,0,-0.3136769,0.75548291,35.421242,-4.1855096)" />
    <path
       style="opacity:1;fill:#edcd19;fill-opacity:1;stroke:#4a2605;stroke-width:3.63979;stroke-linecap:round;stroke-linejoin:round;stroke-dasharray:none;stroke-opacity:1;paint-order:stroke fill markers"
       d="m 20.108335,30.691666 v 2.116666 a 1.0583334,1.0583334 135 0 1 -1.058333,1.058333 h -5.291667 a 1.0583343,1.0583343 135 0 0 -1.058334,1.058334 v 2.116665 a 1.0583335,1.0583335 45 0 0 1.058334,1.058334 H 19.05 a 1.0583346,1.0583346 45 0 1 1.058335,1.058335 l 0,2.116666 a 1.0583328,1.0583328 135 0 1 -1.058333,1.058333 H 14.816668 A 4.4831705,4.4831705 13.282525 0 1 12.811733,41.860031 L 10.471602,40.689966 A 1.7124177,1.7124177 58.282525 0 1 9.5250006,39.158333 l 0,-7.408333 a 2.116668,2.116668 135 0 1 2.1166684,-2.116668 h 2.116666 5.291666 a 1.0583341,1.0583341 45 0 1 1.058334,1.058334 z"
       id="path7"
       transform="matrix(0.44763866,0,-0.3136769,0.75548291,42.331748,-16.978353)" />
    <path
       style="opacity:1;fill:#edcd19;fill-opacity:1;stroke:#4a2605;stroke-width:3.63979;stroke-linecap:round;stroke-linejoin:round;stroke-dasharray:none;stroke-opacity:1;paint-order:stroke fill markers"
       d="m 20.108335,30.691666 v 2.116666 a 1.0583334,1.0583334 135 0 1 -1.058333,1.058333 h -5.291667 a 1.0583343,1.0583343 135 0 0 -1.058334,1.058334 v 2.116665 a 1.0583335,1.0583335 45 0 0 1.058334,1.058334 H 19.05 a 1.0583346,1.0583346 45 0 1 1.058335,1.058335 l 0,2.116666 a 1.0583328,1.0583328 135 0 1 -1.058333,1.058333 H 14.816668 A 4.4831705,4.4831705 13.282525 0 1 12.811733,41.860031 L 10.471602,40.689966 A 1.7124177,1.7124177 58.282525 0 1 9.5250006,39.158333 l 0,-7.408333 a 2.116668,2.116668 135 0 1 2.1166684,-2.116668 h 2.116666 5.291666 a 1.0583341,1.0583341 45 0 1 1.058334,1.058334 z"
       id="path7-6"
       transform="matrix(0.44763866,0,-0.3136769,0.75548291,80.054171,-16.978353)" />
    <path
       id="rect7"
       style="opacity:1;fill:#edcd19;fill-opacity:1;stroke:#4a2605;stroke-width:3.63979;stroke-linecap:round;stroke-linejoin:round;stroke-dasharray:none;stroke-opacity:1;paint-order:stroke fill markers"
       d="m 22.225,31.749999 0,8.466665 a 2.1166687,2.1166687 45 0 0 2.116669,2.116669 h 7.408329 a 1.0583355,1.0583355 135 0 0 1.058335,-1.058336 v -9.525 a 2.1166638,2.1166638 45 0 0 -2.116664,-2.116664 l -6.350003,0 A 2.1166664,2.1166664 135 0 0 22.225,31.749999 Z m 4.233336,2.116668 h 2.116665 a 1.0583323,1.0583323 45 0 1 1.058332,1.058332 v 2.11667 A 1.0583306,1.0583306 135 0 1 28.575002,38.1 H 26.458334 A 1.058334,1.058334 45 0 1 25.4,37.041666 l 0,-2.116664 a 1.0583355,1.0583355 135 0 1 1.058336,-1.058335 z"
       transform="matrix(0.44763866,0,-0.3136769,0.75548291,42.331748,-16.978353)" />
    <path
       id="rect7-6"
       style="opacity:1;fill:#edcd19;fill-opacity:1;stroke:#4a2605;stroke-width:3.63979;stroke-linecap:round;stroke-linejoin:round;stroke-dasharray:none;stroke-opacity:1;paint-order:stroke fill markers"
       d="m 22.225,31.749999 0,8.466665 a 2.1166687,2.1166687 45 0 0 2.116669,2.116669 h 7.408329 a 1.0583355,1.0583355 135 0 0 1.058335,-1.058336 v -9.525 a 2.1166638,2.1166638 45 0 0 -2.116664,-2.116664 l -6.350003,0 A 2.1166664,2.1166664 135 0 0 22.225,31.749999 Z m 4.233336,2.116668 h 2.116665 a 1.0583323,1.0583323 45 0 1 1.058332,1.058332 v 2.11667 A 1.0583306,1.0583306 135 0 1 28.575002,38.1 H 26.458334 A 1.058334,1.058334 45 0 1 25.4,37.041666 l 0,-2.116664 a 1.0583355,1.0583355 135 0 1 1.058336,-1.058335 z"
       transform="matrix(0.44763866,0,-0.3136769,0.75548291,87.634126,-16.978353)" />
    <path
       style="opacity:1;fill:#edcd19;fill-opacity:1;stroke:#4a2605;stroke-width:3.63979;stroke-linecap:round;stroke-linejoin:round;stroke-dasharray:none;stroke-opacity:1;paint-order:stroke fill markers"
       d="m 47.625004,30.691666 0,2.116666 a 1.0583334,1.0583334 45 0 0 1.058333,1.058333 h 1.058332 a 1.0583343,1.0583343 45 0 1 1.058334,1.058334 l 0,6.349998 a 1.0583346,1.0583346 45 0 0 1.058335,1.058335 h 1.058332 a 1.0583328,1.0583328 135 0 0 1.058333,-1.058333 l 0,-6.349999 a 1.0583349,1.0583349 135 0 1 1.058335,-1.058335 h 1.058333 a 1.0583323,1.0583323 135 0 0 1.058332,-1.058332 l 0,-2.116667 a 1.0583341,1.0583341 45 0 0 -1.058334,-1.058334 l -7.408331,0 a 1.0583341,1.0583341 135 0 0 -1.058334,1.058334 z"
       id="path8-1"
       transform="matrix(0.44763866,0,-0.3136769,0.75548291,68.684145,-16.978353)" />
    <path
       style="opacity:1;fill:#edcd19;fill-opacity:1;stroke:#4a2605;stroke-width:3.63979;stroke-linecap:round;stroke-linejoin:round;stroke-dasharray:none;stroke-opacity:1;paint-order:stroke fill markers"
       d="m 111.12501,30.691666 0,10.583333 a 1.0583338,1.0583338 135 0 1 -1.05833,1.058334 h -1.05834 a 1.0583338,1.0583338 45 0 1 -1.05833,-1.058334 l 0,-10.583333 a 1.0583321,1.0583321 135 0 1 1.05833,-1.058332 l 1.05834,0 a 1.0583321,1.0583321 45 0 1 1.05833,1.058332 z"
       id="path10"
       transform="matrix(0.44763866,0,-0.3136769,0.75548291,46.8916,-16.978353)" />
    <path
       style="opacity:1;fill:#edcd19;fill-opacity:1;stroke:#4a2605;stroke-width:3.63979;stroke-linecap:round;stroke-linejoin:round;stroke-dasharray:none;stroke-opacity:1;paint-order:stroke fill markers"
       d="m 25.400002,13.758333 v 6.349999 a 1.0583335,1.0583335 45 0 0 1.058334,1.058334 h 2.116667 a 1.058333,1.058333 135 0 0 1.058333,-1.058333 v -6.35 A 1.0583331,1.0583331 135 0 1 30.691669,12.7 h 1.058334 a 1.0583331,1.0583331 45 0 1 1.058333,1.058333 v 9.525 a 2.1166661,2.1166661 135 0 1 -2.116666,2.116666 h -6.350002 a 2.1166661,2.1166661 45 0 1 -2.116666,-2.116666 l 0,-9.525 A 1.0583333,1.0583333 135 0 1 23.283335,12.7 h 1.058334 a 1.0583331,1.0583331 45 0 1 1.058333,1.058333 z"
       id="path1-7"
       transform="matrix(0.44763866,0,-0.3136769,0.75548291,63.37255,-4.1855096)" />
    <path
       style="font-style:italic;font-weight:bold;font-size:74.6667px;font-family:'IBM Plex Mono';-inkscape-font-specification:'IBM Plex Mono Bold Italic';white-space:pre;fill:#edcd19;stroke:#4a2605;stroke-width:2.11667;stroke-linecap:round;stroke-linejoin:round;stroke-dasharray:none;paint-order:stroke fill markers"
       d="m 16.978872,14.885678 h 1.357219 L 24.09111,1.4677229 h -1.357217 l -2.4869,5.8023583 h -0.06507 c 0.284331,-1.2330011 0.171063,-1.9582957 -0.581917,-1.9582957 -1.329332,0 -3.044463,2.4478697 -4.322003,6.1650065 -0.754061,2.194017 -0.855948,3.626475 0.157318,3.626475 0.818049,0 1.594652,-1.015413 2.449518,-2.447871 h 0.04648 z m -0.235108,-1.83137 c -0.4648,0 -0.38602,-0.68903 -0.08995,-1.577516 0.105939,-0.30825 0.224245,-0.598368 0.317619,-0.815956 l 0.466874,-1.0879439 c 0.606937,-1.4143245 1.225095,-2.2121488 1.894407,-2.2121488 0.585651,0 0.634155,0.5621033 0.213968,1.5412518 l -0.647394,1.5049869 c -0.333041,0.779692 -0.774262,1.414325 -1.041404,1.75884 -0.410062,0.543972 -0.779461,0.888486 -1.114118,0.888486 z m 5.124403,2.048959 c 1.227072,0 2.239451,-1.160472 3.221292,-2.556665 l -0.478254,-1.06981 c -0.916457,1.233002 -1.33857,1.595649 -1.86844,1.595649 -0.650724,0 -0.72712,-0.562104 -0.384364,-1.559384 0.03116,-0.09066 0.05609,-0.163191 0.115243,-0.30825 2.80158,-0.199456 3.858204,-1.8132379 4.375456,-3.3182253 0.592028,-1.7225751 0.08547,-2.5747962 -0.881316,-2.5747962 -1.701169,0 -3.623671,2.3209432 -4.820197,5.8023595 -0.853771,2.484135 -0.692411,3.989122 0.720584,3.989122 z m 3.318285,-7.9238475 c 0.409024,0 0.476541,0.3445152 0.270888,0.9428833 -0.205652,0.5983683 -0.585176,1.3780603 -2.367258,1.5593853 l 0.115132,-0.253854 c 0.731263,-1.6137816 1.395591,-2.2484146 1.981238,-2.2484146 z"
       id="text17"
       aria-label="de" />
    <path
       style="font-style:italic;font-weight:bold;font-size:74.6667px;font-family:'IBM Plex Mono';-inkscape-font-specification:'IBM Plex Mono Bold Italic';white-space:pre;fill:#edcd19;stroke:#4a2605;stroke-width:2.11667;stroke-linecap:round;stroke-linejoin:round;stroke-dasharray:none;paint-order:stroke fill markers"
       d="m 52.288513,15.143578 c 1.431586,0 2.775662,-1.233001 3.486099,-3.300091 0.523479,-1.523119 0.25514,-2.1758846 -0.425912,-2.5204006 l -0.60985,-0.30825 C 54.485,8.8879104 54.358232,8.7428514 54.532725,8.2351444 54.763306,7.564247 55.197776,7.219732 55.681169,7.219732 c 0.539169,0 0.842044,0.417044 0.875127,0.9428834 L 57.810994,6.675761 c -0.04493,-0.815957 -0.59552,-1.323664 -1.450754,-1.323664 -1.245667,0 -2.561646,1.124207 -3.284547,3.2275624 -0.567105,1.6500466 -0.2057,2.2484146 0.413447,2.5566646 l 0.588194,0.290118 c 0.244554,0.126927 0.386746,0.308251 0.212254,0.815957 -0.230581,0.670898 -0.708468,1.033545 -1.266228,1.033545 -0.567057,0 -0.947468,-0.38078 -0.961545,-1.124207 l -1.267058,1.468722 c -0.01116,0.979148 0.536266,1.523119 1.493756,1.523119 z"
       id="text17-2"
       aria-label="s" />
    <path
       style="opacity:1;fill:#edcd19;fill-opacity:1;stroke:#4a2605;stroke-width:3.63979;stroke-linecap:round;stroke-linejoin:round;stroke-dasharray:none;stroke-opacity:1;paint-order:stroke fill markers"
       d="m 25.400002,13.758333 v 6.349999 a 1.0583335,1.0583335 45 0 0 1.058334,1.058334 h 2.116667 a 1.058333,1.058333 135 0 0 1.058333,-1.058333 v -6.35 A 1.0583331,1.0583331 135 0 1 30.691669,12.7 h 1.058334 a 1.0583331,1.0583331 45 0 1 1.058333,1.058333 v 9.525 a 2.1166661,2.1166661 135 0 1 -2.116666,2.116666 h -6.350002 a 2.1166661,2.1166661 45 0 1 -2.116666,-2.116666 l 0,-9.525 A 1.0583333,1.0583333 135 0 1 23.283335,12.7 h 1.058334 a 1.0583331,1.0583331 45 0 1 1.058333,1.058333 z"
       id="path1"
       transform="matrix(0.44763866,0,-0.3136769,0.75548291,0.36218437,-4.162299)" />
    <path
       style="opacity:1;fill:#edcd19;fill-opacity:1;stroke:#4a2605;stroke-width:3.63979;stroke-linecap:round;stroke-linejoin:round;stroke-dasharray:none;stroke-opacity:1;paint-order:stroke fill markers"
       d="M 34.925002,24.341666 V 13.758333 A 1.0583331,1.0583331 135 0 1 35.983335,12.7 h 1.058334 a 1.0583331,1.0583331 45 0 1 1.058333,1.058333 v 1.058333 L 42.333335,12.7 h 2.116667 a 1.0583331,1.0583331 45 0 1 1.058333,1.058333 v 10.583333 a 1.0583328,1.0583328 135 0 1 -1.058333,1.058333 H 43.391668 A 1.0583328,1.0583328 45 0 1 42.333335,24.341666 V 18.12324 A 0.73540292,0.73540292 31.717477 0 0 41.26905,17.465475 l -2.222445,1.111223 a 1.7124202,1.7124202 121.71748 0 0 -0.946603,1.531635 v 4.233333 a 1.0583328,1.0583328 135 0 1 -1.058333,1.058333 h -1.058334 a 1.0583328,1.0583328 45 0 1 -1.058333,-1.058333 z"
       id="path2-2"
       transform="matrix(0.44763865,0,-0.31367691,0.75548292,37.020153,-4.1855095)" />
    <path
       style="opacity:1;fill:#edcd19;fill-opacity:1;stroke:#4a2605;stroke-width:3.63979;stroke-linecap:round;stroke-linejoin:round;stroke-dasharray:none;stroke-opacity:1;paint-order:stroke fill markers"
       d="M 34.925002,24.341666 V 13.758333 A 1.0583331,1.0583331 135 0 1 35.983335,12.7 h 1.058334 a 1.0583331,1.0583331 45 0 1 1.058333,1.058333 v 1.058333 L 42.333335,12.7 h 2.116667 a 1.0583331,1.0583331 45 0 1 1.058333,1.058333 v 10.583333 a 1.0583328,1.0583328 135 0 1 -1.058333,1.058333 H 43.391668 A 1.0583328,1.0583328 45 0 1 42.333335,24.341666 V 18.12324 A 0.73540292,0.73540292 31.717477 0 0 41.26905,17.465475 l -2.222445,1.111223 a 1.7124202,1.7124202 121.71748 0 0 -0.946603,1.531635 v 4.233333 a 1.0583328,1.0583328 135 0 1 -1.058333,1.058333 h -1.058334 a 1.0583328,1.0583328 45 0 1 -1.058333,-1.058333 z"
       id="path2"
       transform="matrix(0.44763866,0,-0.3136769,0.75548291,0.36218437,-4.162299)" />
    <path
       style="opacity:1;fill:#edcd19;fill-opacity:1;stroke:#4a2605;stroke-width:3.63979;stroke-linecap:round;stroke-linejoin:round;stroke-dasharray:none;stroke-opacity:1;paint-order:stroke fill markers"
       d="m 47.625004,30.691666 0,2.116666 a 1.0583334,1.0583334 45 0 0 1.058333,1.058333 h 1.058332 a 1.0583343,1.0583343 45 0 1 1.058334,1.058334 l 0,6.349998 a 1.0583346,1.0583346 45 0 0 1.058335,1.058335 h 1.058332 a 1.0583328,1.0583328 135 0 0 1.058333,-1.058333 l 0,-6.349999 a 1.0583349,1.0583349 135 0 1 1.058335,-1.058335 h 1.058333 a 1.0583323,1.0583323 135 0 0 1.058332,-1.058332 l 0,-2.116667 a 1.0583341,1.0583341 45 0 0 -1.058334,-1.058334 l -7.408331,0 a 1.0583341,1.0583341 135 0 0 -1.058334,1.058334 z"
       id="path8"
       transform="matrix(0.44763867,0,-0.3136769,0.75548292,46.8916,-16.978353)" />
    <path
       style="opacity:1;fill:#edcd19;fill-opacity:1;stroke:#4a2605;stroke-width:3.63979;stroke-linecap:round;stroke-linejoin:round;stroke-dasharray:none;stroke-opacity:1;paint-order:stroke fill markers"
       d="M 73.025007,24.341666 V 13.758332 A 1.0583325,1.0583325 135 0 1 74.08334,12.7 h 1.058334 a 1.0583331,1.0583331 45 0 1 1.058333,1.058333 v 1.058333 l 3.132923,-1.566461 a 2.4605929,2.4605929 180 0 1 2.20082,0 l 0.06965,0.03483 a 1.7124191,1.7124191 58.28252 0 1 0.946602,1.531634 v 1e-6 a 1.7124191,1.7124191 121.71748 0 1 -0.946602,1.531634 l -1.170065,0.585032 -3.28673,1.643365 a 1.7124202,1.7124202 121.71748 0 0 -0.946603,1.531635 v 4.233332 a 1.0583341,1.0583341 135 0 1 -1.058334,1.058334 H 74.08334 a 1.0583328,1.0583328 45 0 1 -1.058333,-1.058333 z"
       id="path2-6"
       transform="matrix(0.44763866,0,-0.3136769,0.75548291,0.36218437,-4.162299)" />
    <g
       id="g158"
       style="opacity:0.25;fill:url(#pattern160);fill-opacity:1;stroke:none">
      <path
         style="opacity:1;fill:url(#pattern160);fill-opacity:1;stroke:none;stroke-width:3.63979;stroke-linecap:round;stroke-linejoin:round;stroke-dasharray:none;stroke-opacity:1;paint-order:stroke fill markers"
         d="M 34.925002,24.341666 V 13.758333 A 1.0583331,1.0583331 135 0 1 35.983335,12.7 h 1.058334 a 1.0583331,1.0583331 45 0 1 1.058333,1.058333 v 1.058333 L 42.333335,12.7 h 2.116667 a 1.0583331,1.0583331 45 0 1 1.058333,1.058333 v 10.583333 a 1.0583328,1.0583328 135 0 1 -1.058333,1.058333 H 43.391668 A 1.0583328,1.0583328 45 0 1 42.333335,24.341666 V 18.12324 A 0.73540292,0.73540292 31.717477 0 0 41.26905,17.465475 l -2.222445,1.111223 a 1.7124202,1.7124202 121.71748 0 0 -0.946603,1.531635 v 4.233333 a 1.0583328,1.0583328 135 0 1 -1.058333,1.058333 h -1.058334 a 1.0583328,1.0583328 45 0 1 -1.058333,-1.058333 z"
         id="path3"
         transform="matrix(0.44763866,0,-0.3136769,0.75548291,82.322567,-4.1855096)" />
      <path
         style="opacity:1;fill:url(#pattern160);fill-opacity:1;stroke:none;stroke-width:3.63979;stroke-linecap:round;stroke-linejoin:round;stroke-dasharray:none;stroke-opacity:1;paint-order:stroke fill markers"
         d="M 73.025007,24.341666 V 13.758332 A 1.0583325,1.0583325 135 0 1 74.08334,12.7 h 1.058334 a 1.0583331,1.0583331 45 0 1 1.058333,1.058333 v 1.058333 l 3.132923,-1.566461 a 2.4605929,2.4605929 180 0 1 2.20082,0 l 0.06965,0.03483 a 1.7124191,1.7124191 58.28252 0 1 0.946602,1.531634 v 1e-6 a 1.7124191,1.7124191 121.71748 0 1 -0.946602,1.531634 l -1.170065,0.585032 -3.28673,1.643365 a 1.7124202,1.7124202 121.71748 0 0 -0.946603,1.531635 v 4.233332 a 1.0583341,1.0583341 135 0 1 -1.058334,1.058334 H 74.08334 a 1.0583328,1.0583328 45 0 1 -1.058333,-1.058333 z"
         id="path4"
         transform="matrix(0.44763866,0,-0.3136769,0.75548291,35.421242,-4.1855096)" />
      <path
         style="opacity:1;fill:url(#pattern160);fill-opacity:1;stroke:none;stroke-width:3.63979;stroke-linecap:round;stroke-linejoin:round;stroke-dasharray:none;stroke-opacity:1;paint-order:stroke fill markers"
         d="m 20.108335,30.691666 v 2.116666 a 1.0583334,1.0583334 135 0 1 -1.058333,1.058333 h -5.291667 a 1.0583343,1.0583343 135 0 0 -1.058334,1.058334 v 2.116665 a 1.0583335,1.0583335 45 0 0 1.058334,1.058334 H 19.05 a 1.0583346,1.0583346 45 0 1 1.058335,1.058335 l 0,2.116666 a 1.0583328,1.0583328 135 0 1 -1.058333,1.058333 H 14.816668 A 4.4831705,4.4831705 13.282525 0 1 12.811733,41.860031 L 10.471602,40.689966 A 1.7124177,1.7124177 58.282525 0 1 9.5250006,39.158333 l 0,-7.408333 a 2.116668,2.116668 135 0 1 2.1166684,-2.116668 h 2.116666 5.291666 a 1.0583341,1.0583341 45 0 1 1.058334,1.058334 z"
         id="path5"
         transform="matrix(0.44763866,0,-0.3136769,0.75548291,42.331748,-16.978353)" />
      <path
         style="opacity:1;fill:url(#pattern160);fill-opacity:1;stroke:none;stroke-width:3.63979;stroke-linecap:round;stroke-linejoin:round;stroke-dasharray:none;stroke-opacity:1;paint-order:stroke fill markers"
         d="m 20.108335,30.691666 v 2.116666 a 1.0583334,1.0583334 135 0 1 -1.058333,1.058333 h -5.291667 a 1.0583343,1.0583343 135 0 0 -1.058334,1.058334 v 2.116665 a 1.0583335,1.0583335 45 0 0 1.058334,1.058334 H 19.05 a 1.0583346,1.0583346 45 0 1 1.058335,1.058335 l 0,2.116666 a 1.0583328,1.0583328 135 0 1 -1.058333,1.058333 H 14.816668 A 4.4831705,4.4831705 13.282525 0 1 12.811733,41.860031 L 10.471602,40.689966 A 1.7124177,1.7124177 58.282525 0 1 9.5250006,39.158333 l 0,-7.408333 a 2.116668,2.116668 135 0 1 2.1166684,-2.116668 h 2.116666 5.291666 a 1.0583341,1.0583341 45 0 1 1.058334,1.058334 z"
         id="path6"
         transform="matrix(0.44763866,0,-0.3136769,0.75548291,80.054171,-16.978353)" />
      <path
         id="path9"
         style="opacity:1;fill:url(#pattern160);fill-opacity:1;stroke:none;stroke-width:3.63979;stroke-linecap:round;stroke-linejoin:round;stroke-dasharray:none;stroke-opacity:1;paint-order:stroke fill markers"
         d="m 22.225,31.749999 0,8.466665 a 2.1166687,2.1166687 45 0 0 2.116669,2.116669 h 7.408329 a 1.0583355,1.0583355 135 0 0 1.058335,-1.058336 v -9.525 a 2.1166638,2.1166638 45 0 0 -2.116664,-2.116664 l -6.350003,0 A 2.1166664,2.1166664 135 0 0 22.225,31.749999 Z m 4.233336,2.116668 h 2.116665 a 1.0583323,1.0583323 45 0 1 1.058332,1.058332 v 2.11667 A 1.0583306,1.0583306 135 0 1 28.575002,38.1 H 26.458334 A 1.058334,1.058334 45 0 1 25.4,37.041666 l 0,-2.116664 a 1.0583355,1.0583355 135 0 1 1.058336,-1.058335 z"
         transform="matrix(0.44763866,0,-0.3136769,0.75548291,42.331748,-16.978353)" />
      <path
         id="path11"
         style="opacity:1;fill:url(#pattern160);fill-opacity:1;stroke:none;stroke-width:3.63979;stroke-linecap:round;stroke-linejoin:round;stroke-dasharray:none;stroke-opacity:1;paint-order:stroke fill markers"
         d="m 22.225,31.749999 0,8.466665 a 2.1166687,2.1166687 45 0 0 2.116669,2.116669 h 7.408329 a 1.0583355,1.0583355 135 0 0 1.058335,-1.058336 v -9.525 a 2.1166638,2.1166638 45 0 0 -2.116664,-2.116664 l -6.350003,0 A 2.1166664,2.1166664 135 0 0 22.225,31.749999 Z m 4.233336,2.116668 h 2.116665 a 1.0583323,1.0583323 45 0 1 1.058332,1.058332 v 2.11667 A 1.0583306,1.0583306 135 0 1 28.575002,38.1 H 26.458334 A 1.058334,1.058334 45 0 1 25.4,37.041666 l 0,-2.116664 a 1.0583355,1.0583355 135 0 1 1.058336,-1.058335 z"
         transform="matrix(0.44763866,0,-0.3136769,0.75548291,87.634126,-16.978353)" />
      <path
         style="opacity:1;fill:url(#pattern160);fill-opacity:1;stroke:none;stroke-width:3.63979;stroke-linecap:round;stroke-linejoin:round;stroke-dasharray:none;stroke-opacity:1;paint-order:stroke fill markers"
         d="m 47.625004,30.691666 0,2.116666 a 1.0583334,1.0583334 45 0 0 1.058333,1.058333 h 1.058332 a 1.0583343,1.0583343 45 0 1 1.058334,1.058334 l 0,6.349998 a 1.0583346,1.0583346 45 0 0 1.058335,1.058335 h 1.058332 a 1.0583328,1.0583328 135 0 0 1.058333,-1.058333 l 0,-6.349999 a 1.0583349,1.0583349 135 0 1 1.058335,-1.058335 h 1.058333 a 1.0583323,1.0583323 135 0 0 1.058332,-1.058332 l 0,-2.116667 a 1.0583341,1.0583341 45 0 0 -1.058334,-1.058334 l -7.408331,0 a 1.0583341,1.0583341 135 0 0 -1.058334,1.058334 z"
         id="path12"
         transform="matrix(0.44763866,0,-0.3136769,0.75548291,68.684145,-16.978353)" />
      <path
         style="opacity:1;fill:url(#pattern160);fill-opacity:1;stroke:none;stroke-width:3.63979;stroke-linecap:round;stroke-linejoin:round;stroke-dasharray:none;stroke-opacity:1;paint-order:stroke fill markers"
         d="m 111.12501,30.691666 0,10.583333 a 1.0583338,1.0583338 135 0 1 -1.05833,1.058334 h -1.05834 a 1.0583338,1.0583338 45 0 1 -1.05833,-1.058334 l 0,-10.583333 a 1.0583321,1.0583321 135 0 1 1.05833,-1.058332 l 1.05834,0 a 1.0583321,1.0583321 45 0 1 1.05833,1.058332 z"
         id="path13"
         transform="matrix(0.44763866,0,-0.3136769,0.75548291,46.8916,-16.978353)" />
      <path
         style="opacity:1;fill:url(#pattern160);fill-opacity:1;stroke:none;stroke-width:3.63979;stroke-linecap:round;stroke-linejoin:round;stroke-dasharray:none;stroke-opacity:1;paint-order:stroke fill markers"
         d="m 25.400002,13.758333 v 6.349999 a 1.0583335,1.0583335 45 0 0 1.058334,1.058334 h 2.116667 a 1.058333,1.058333 135 0 0 1.058333,-1.058333 v -6.35 A 1.0583331,1.0583331 135 0 1 30.691669,12.7 h 1.058334 a 1.0583331,1.0583331 45 0 1 1.058333,1.058333 v 9.525 a 2.1166661,2.1166661 135 0 1 -2.116666,2.116666 h -6.350002 a 2.1166661,2.1166661 45 0 1 -2.116666,-2.116666 l 0,-9.525 A 1.0583333,1.0583333 135 0 1 23.283335,12.7 h 1.058334 a 1.0583331,1.0583331 45 0 1 1.058333,1.058333 z"
         id="path14"
         transform="matrix(0.44763866,0,-0.3136769,0.75548291,63.37255,-4.1855096)" />
      <path
         style="opacity:1;fill:url(#pattern160);fill-opacity:1;stroke:none;stroke-width:3.63979;stroke-linecap:round;stroke-linejoin:round;stroke-dasharray:none;stroke-opacity:1;paint-order:stroke fill markers"
         d="m 25.400002,13.758333 v 6.349999 a 1.0583335,1.0583335 45 0 0 1.058334,1.058334 h 2.116667 a 1.058333,1.058333 135 0 0 1.058333,-1.058333 v -6.35 A 1.0583331,1.0583331 135 0 1 30.691669,12.7 h 1.058334 a 1.0583331,1.0583331 45 0 1 1.058333,1.058333 v 9.525 a 2.1166661,2.1166661 135 0 1 -2.116666,2.116666 h -6.350002 a 2.1166661,2.1166661 45 0 1 -2.116666,-2.116666 l 0,-9.525 A 1.0583333,1.0583333 135 0 1 23.283335,12.7 h 1.058334 a 1.0583331,1.0583331 45 0 1 1.058333,1.058333 z"
         id="path17"
         transform="matrix(0.44763866,0,-0.3136769,0.75548291,0.36218437,-4.162299)" />
      <path
         style="opacity:1;fill:url(#pattern160);fill-opacity:1;stroke:none;stroke-width:3.63979;stroke-linecap:round;stroke-linejoin:round;stroke-dasharray:none;stroke-opacity:1;paint-order:stroke fill markers"
         d="M 34.925002,24.341666 V 13.758333 A 1.0583331,1.0583331 135 0 1 35.983335,12.7 h 1.058334 a 1.0583331,1.0583331 45 0 1 1.058333,1.058333 v 1.058333 L 42.333335,12.7 h 2.116667 a 1.0583331,1.0583331 45 0 1 1.058333,1.058333 v 10.583333 a 1.0583328,1.0583328 135 0 1 -1.058333,1.058333 H 43.391668 A 1.0583328,1.0583328 45 0 1 42.333335,24.341666 V 18.12324 A 0.73540292,0.73540292 31.717477 0 0 41.26905,17.465475 l -2.222445,1.111223 a 1.7124202,1.7124202 121.71748 0 0 -0.946603,1.531635 v 4.233333 a 1.0583328,1.0583328 135 0 1 -1.058333,1.058333 h -1.058334 a 1.0583328,1.0583328 45 0 1 -1.058333,-1.058333 z"
         id="path18"
         transform="matrix(0.44763865,0,-0.31367691,0.75548292,37.020153,-4.1855095)" />
      <path
         style="opacity:1;fill:url(#pattern160);fill-opacity:1;stroke:none;stroke-width:3.63979;stroke-linecap:round;stroke-linejoin:round;stroke-dasharray:none;stroke-opacity:1;paint-order:stroke fill markers"
         d="M 34.925002,24.341666 V 13.758333 A 1.0583331,1.0583331 135 0 1 35.983335,12.7 h 1.058334 a 1.0583331,1.0583331 45 0 1 1.058333,1.058333 v 1.058333 L 42.333335,12.7 h 2.116667 a 1.0583331,1.0583331 45 0 1 1.058333,1.058333 v 10.583333 a 1.0583328,1.0583328 135 0 1 -1.058333,1.058333 H 43.391668 A 1.0583328,1.0583328 45 0 1 42.333335,24.341666 V 18.12324 A 0.73540292,0.73540292 31.717477 0 0 41.26905,17.465475 l -2.222445,1.111223 a 1.7124202,1.7124202 121.71748 0 0 -0.946603,1.531635 v 4.233333 a 1.0583328,1.0583328 135 0 1 -1.058333,1.058333 h -1.058334 a 1.0583328,1.0583328 45 0 1 -1.058333,-1.058333 z"
         id="path19"
         transform="matrix(0.44763866,0,-0.3136769,0.75548291,0.36218437,-4.162299)" />
      <path
         style="opacity:1;fill:url(#pattern160);fill-opacity:1;stroke:none;stroke-width:3.63979;stroke-linecap:round;stroke-linejoin:round;stroke-dasharray:none;stroke-opacity:1;paint-order:stroke fill markers"
         d="m 47.625004,30.691666 0,2.116666 a 1.0583334,1.0583334 45 0 0 1.058333,1.058333 h 1.058332 a 1.0583343,1.0583343 45 0 1 1.058334,1.058334 l 0,6.349998 a 1.0583346,1.0583346 45 0 0 1.058335,1.058335 h 1.058332 a 1.0583328,1.0583328 135 0 0 1.058333,-1.058333 l 0,-6.349999 a 1.0583349,1.0583349 135 0 1 1.058335,-1.058335 h 1.058333 a 1.0583323,1.0583323 135 0 0 1.058332,-1.058332 l 0,-2.116667 a 1.0583341,1.0583341 45 0 0 -1.058334,-1.058334 l -7.408331,0 a 1.0583341,1.0583341 135 0 0 -1.058334,1.058334 z"
         id="path20"
         transform="matrix(0.44763867,0,-0.3136769,0.75548292,46.8916,-16.978353)" />
      <path
         style="opacity:1;fill:url(#pattern160);fill-opacity:1;stroke:none;stroke-width:3.63979;stroke-linecap:round;stroke-linejoin:round;stroke-dasharray:none;stroke-opacity:1;paint-order:stroke fill markers"
         d="M 73.025007,24.341666 V 13.758332 A 1.0583325,1.0583325 135 0 1 74.08334,12.7 h 1.058334 a 1.0583331,1.0583331 45 0 1 1.058333,1.058333 v 1.058333 l 3.132923,-1.566461 a 2.4605929,2.4605929 180 0 1 2.20082,0 l 0.06965,0.03483 a 1.7124191,1.7124191 58.28252 0 1 0.946602,1.531634 v 1e-6 a 1.7124191,1.7124191 121.71748 0 1 -0.946602,1.531634 l -1.170065,0.585032 -3.28673,1.643365 a 1.7124202,1.7124202 121.71748 0 0 -0.946603,1.531635 v 4.233332 a 1.0583341,1.0583341 135 0 1 -1.058334,1.058334 H 74.08334 a 1.0583328,1.0583328 45 0 1 -1.058333,-1.058333 z"
         id="path21"
         transform="matrix(0.44763866,0,-0.3136769,0.75548291,0.36218437,-4.162299)" />
      <path
         style="font-style:italic;font-weight:bold;font-size:74.6667px;font-family:'IBM Plex Mono';-inkscape-font-specification:'IBM Plex Mono Bold Italic';white-space:pre;opacity:1;fill:url(#pattern171);fill-opacity:1;stroke:none;stroke-width:2.11667;stroke-linecap:round;stroke-linejoin:round;stroke-dasharray:none;paint-order:stroke fill markers"
         d="m 16.978872,14.885678 h 1.357219 L 24.09111,1.4677229 h -1.357217 l -2.4869,5.8023583 h -0.06507 c 0.284331,-1.2330011 0.171063,-1.9582957 -0.581917,-1.9582957 -1.329332,0 -3.044463,2.4478697 -4.322003,6.1650065 -0.754061,2.194017 -0.855948,3.626475 0.157318,3.626475 0.818049,0 1.594652,-1.015413 2.449518,-2.447871 h 0.04648 z m -0.235108,-1.83137 c -0.4648,0 -0.38602,-0.68903 -0.08995,-1.577516 0.105939,-0.30825 0.224245,-0.598368 0.317619,-0.815956 l 0.466874,-1.0879439 c 0.606937,-1.4143245 1.225095,-2.2121488 1.894407,-2.2121488 0.585651,0 0.634155,0.5621033 0.213968,1.5412518 l -0.647394,1.5049869 c -0.333041,0.779692 -0.774262,1.414325 -1.041404,1.75884 -0.410062,0.543972 -0.779461,0.888486 -1.114118,0.888486 z m 5.124403,2.048959 c 1.227072,0 2.239451,-1.160472 3.221292,-2.556665 l -0.478254,-1.06981 c -0.916457,1.233002 -1.33857,1.595649 -1.86844,1.595649 -0.650724,0 -0.72712,-0.562104 -0.384364,-1.559384 0.03116,-0.09066 0.05609,-0.163191 0.115243,-0.30825 2.80158,-0.199456 3.858204,-1.8132379 4.375456,-3.3182253 0.592028,-1.7225751 0.08547,-2.5747962 -0.881316,-2.5747962 -1.701169,0 -3.623671,2.3209432 -4.820197,5.8023595 -0.853771,2.484135 -0.692411,3.989122 0.720584,3.989122 z m 3.318285,-7.9238475 c 0.409024,0 0.476541,0.3445152 0.270888,0.9428833 -0.205652,0.5983683 -0.585176,1.3780603 -2.367258,1.5593853 l 0.115132,-0.253854 c 0.731263,-1.6137816 1.395591,-2.2484146 1.981238,-2.2484146 z"
         id="path160"
         aria-label="de" />
      <path
         style="font-style:italic;font-weight:bold;font-size:74.6667px;font-family:'IBM Plex Mono';-inkscape-font-specification:'IBM Plex Mono Bold Italic';white-space:pre;opacity:1;fill:url(#pattern170);fill-opacity:1;stroke:none;stroke-width:2.11667;stroke-linecap:round;stroke-linejoin:round;stroke-dasharray:none;paint-order:stroke fill markers"
         d="m 52.288513,15.143578 c 1.431586,0 2.775662,-1.233001 3.486099,-3.300091 0.523479,-1.523119 0.25514,-2.1758846 -0.425912,-2.5204006 l -0.60985,-0.30825 C 54.485,8.8879104 54.358232,8.7428514 54.532725,8.2351444 54.763306,7.564247 55.197776,7.219732 55.681169,7.219732 c 0.539169,0 0.842044,0.417044 0.875127,0.9428834 L 57.810994,6.675761 c -0.04493,-0.815957 -0.59552,-1.323664 -1.450754,-1.323664 -1.245667,0 -2.561646,1.124207 -3.284547,3.2275624 -0.567105,1.6500466 -0.2057,2.2484146 0.413447,2.5566646 l 0.588194,0.290118 c 0.244554,0.126927 0.386746,0.308251 0.212254,0.815957 -0.230581,0.670898 -0.708468,1.033545 -1.266228,1.033545 -0.567057,0 -0.947468,-0.38078 -0.961545,-1.124207 l -1.267058,1.468722 c -0.01116,0.979148 0.536266,1.523119 1.493756,1.523119 z"
         id="path161"
         aria-label="s" />
    </g>
  </g>
</svg>
