<?xml version="1.0" encoding="UTF-8" standalone="no"?>
<!-- Created with Inkscape (http://www.inkscape.org/) -->

<svg
   width="255.99998"
   height="123.99999"
   viewBox="0 0 67.733328 32.808334"
   version="1.1"
   id="svg1"
   xmlns="http://www.w3.org/2000/svg"
   xmlns:svg="http://www.w3.org/2000/svg">
  <defs
     id="defs1" />
  <g
     id="layer1">
    <path
       style="opacity:1;fill:#edcd19;fill-opacity:1;stroke:#4a2605;stroke-width:6.00745;stroke-linecap:round;stroke-linejoin:round;stroke-dasharray:none;stroke-opacity:1;paint-order:stroke fill markers"
       id="path18"
       d="m 15.081251,-18.73521 20.807884,36.040315 -41.6157705,-1e-6 z"
       transform="matrix(0.40464405,0,-0.13515311,0.40464405,15.424796,11.442993)" />
    <path
       style="opacity:1;fill:#edcd19;fill-opacity:1;stroke:#4a2605;stroke-width:3.81895;stroke-linecap:round;stroke-linejoin:round;stroke-dasharray:none;stroke-opacity:1;paint-order:stroke fill markers"
       d="M 34.925002,24.341666 V 13.758333 A 1.0583331,1.0583331 135 0 1 35.983335,12.7 h 1.058334 a 1.0583331,1.0583331 45 0 1 1.058333,1.058333 v 1.058333 L 42.333335,12.7 h 2.116667 a 1.0583331,1.0583331 45 0 1 1.058333,1.058333 v 10.583333 a 1.0583328,1.0583328 135 0 1 -1.058333,1.058333 H 43.391668 A 1.0583328,1.0583328 45 0 1 42.333335,24.341666 V 18.12324 A 0.73540292,0.73540292 31.717477 0 0 41.26905,17.465475 l -2.222445,1.111223 a 1.7124202,1.7124202 121.71748 0 0 -0.946603,1.531635 v 4.233333 a 1.0583328,1.0583328 135 0 1 -1.058333,1.058333 h -1.058334 a 1.0583328,1.0583328 45 0 1 -1.058333,-1.058333 z"
       id="path2-0"
       transform="matrix(0.42224784,0,-0.29588462,0.75548291,49.054408,8.3158054)" />
    <path
       style="opacity:1;fill:#edcd19;fill-opacity:1;stroke:#4a2605;stroke-width:3.81895;stroke-linecap:round;stroke-linejoin:round;stroke-dasharray:none;stroke-opacity:1;paint-order:stroke fill markers"
       d="M 73.025007,24.341666 V 13.758332 A 1.0583325,1.0583325 135 0 1 74.08334,12.7 h 1.058334 a 1.0583331,1.0583331 45 0 1 1.058333,1.058333 v 1.058333 l 3.132923,-1.566461 a 2.4605929,2.4605929 180 0 1 2.20082,0 l 0.06965,0.03483 a 1.7124191,1.7124191 58.28252 0 1 0.946602,1.531634 v 1e-6 a 1.7124191,1.7124191 121.71748 0 1 -0.946602,1.531634 l -1.170065,0.585032 -3.28673,1.643365 a 1.7124202,1.7124202 121.71748 0 0 -0.946603,1.531635 v 4.233332 a 1.0583341,1.0583341 135 0 1 -1.058334,1.058334 H 74.08334 a 1.0583328,1.0583328 45 0 1 -1.058333,-1.058333 z"
       id="path2-6-4"
       transform="matrix(0.42224784,0,-0.29588462,0.75548291,4.813381,8.3158054)" />
    <path
       style="opacity:1;fill:#edcd19;fill-opacity:1;stroke:#4a2605;stroke-width:3.81895;stroke-linecap:round;stroke-linejoin:round;stroke-dasharray:none;stroke-opacity:1;paint-order:stroke fill markers"
       d="m 20.108335,30.691666 v 2.116666 a 1.0583334,1.0583334 135 0 1 -1.058333,1.058333 h -5.291667 a 1.0583343,1.0583343 135 0 0 -1.058334,1.058334 v 2.116665 a 1.0583335,1.0583335 45 0 0 1.058334,1.058334 H 19.05 a 1.0583346,1.0583346 45 0 1 1.058335,1.058335 l 0,2.116666 a 1.0583328,1.0583328 135 0 1 -1.058333,1.058333 H 14.816668 A 4.4831705,4.4831705 13.282525 0 1 12.811733,41.860031 L 10.471602,40.689966 A 1.7124177,1.7124177 58.282525 0 1 9.5250006,39.158333 l 0,-7.408333 a 2.116668,2.116668 135 0 1 2.1166684,-2.116668 h 2.116666 5.291666 a 1.0583341,1.0583341 45 0 1 1.058334,1.058334 z"
       id="path7"
       transform="matrix(0.42224784,0,-0.29588462,0.75548291,11.331911,-4.4770386)" />
    <path
       style="opacity:1;fill:#edcd19;fill-opacity:1;stroke:#4a2605;stroke-width:3.81895;stroke-linecap:round;stroke-linejoin:round;stroke-dasharray:none;stroke-opacity:1;paint-order:stroke fill markers"
       d="m 20.108335,30.691666 v 2.116666 a 1.0583334,1.0583334 135 0 1 -1.058333,1.058333 h -5.291667 a 1.0583343,1.0583343 135 0 0 -1.058334,1.058334 v 2.116665 a 1.0583335,1.0583335 45 0 0 1.058334,1.058334 H 19.05 a 1.0583346,1.0583346 45 0 1 1.058335,1.058335 l 0,2.116666 a 1.0583328,1.0583328 135 0 1 -1.058333,1.058333 H 14.816668 A 4.4831705,4.4831705 13.282525 0 1 12.811733,41.860031 L 10.471602,40.689966 A 1.7124177,1.7124177 58.282525 0 1 9.5250006,39.158333 l 0,-7.408333 a 2.116668,2.116668 135 0 1 2.1166684,-2.116668 h 2.116666 5.291666 a 1.0583341,1.0583341 45 0 1 1.058334,1.058334 z"
       id="path7-6"
       transform="matrix(0.42224784,0,-0.29588462,0.75548291,46.914654,-4.4770386)" />
    <path
       id="rect7"
       style="opacity:1;fill:#edcd19;fill-opacity:1;stroke:#4a2605;stroke-width:3.81895;stroke-linecap:round;stroke-linejoin:round;stroke-dasharray:none;stroke-opacity:1;paint-order:stroke fill markers"
       d="m 22.225,31.749999 0,8.466665 a 2.1166687,2.1166687 45 0 0 2.116669,2.116669 h 7.408329 a 1.0583355,1.0583355 135 0 0 1.058335,-1.058336 v -9.525 a 2.1166638,2.1166638 45 0 0 -2.116664,-2.116664 l -6.350003,0 A 2.1166664,2.1166664 135 0 0 22.225,31.749999 Z m 4.233336,2.116668 h 2.116665 a 1.0583323,1.0583323 45 0 1 1.058332,1.058332 v 2.11667 A 1.0583306,1.0583306 135 0 1 28.575002,38.1 H 26.458334 A 1.058334,1.058334 45 0 1 25.4,37.041666 l 0,-2.116664 a 1.0583355,1.0583355 135 0 1 1.058336,-1.058335 z"
       transform="matrix(0.42224784,0,-0.29588462,0.75548291,11.331911,-4.4770386)" />
    <path
       id="rect7-6"
       style="opacity:1;fill:#edcd19;fill-opacity:1;stroke:#4a2605;stroke-width:3.81895;stroke-linecap:round;stroke-linejoin:round;stroke-dasharray:none;stroke-opacity:1;paint-order:stroke fill markers"
       d="m 22.225,31.749999 0,8.466665 a 2.1166687,2.1166687 45 0 0 2.116669,2.116669 h 7.408329 a 1.0583355,1.0583355 135 0 0 1.058335,-1.058336 v -9.525 a 2.1166638,2.1166638 45 0 0 -2.116664,-2.116664 l -6.350003,0 A 2.1166664,2.1166664 135 0 0 22.225,31.749999 Z m 4.233336,2.116668 h 2.116665 a 1.0583323,1.0583323 45 0 1 1.058332,1.058332 v 2.11667 A 1.0583306,1.0583306 135 0 1 28.575002,38.1 H 26.458334 A 1.058334,1.058334 45 0 1 25.4,37.041666 l 0,-2.116664 a 1.0583355,1.0583355 135 0 1 1.058336,-1.058335 z"
       transform="matrix(0.42224784,0,-0.29588462,0.75548291,54.064719,-4.4770386)" />
    <path
       style="opacity:1;fill:#edcd19;fill-opacity:1;stroke:#4a2605;stroke-width:3.81895;stroke-linecap:round;stroke-linejoin:round;stroke-dasharray:none;stroke-opacity:1;paint-order:stroke fill markers"
       d="m 47.625004,30.691666 0,2.116666 a 1.0583334,1.0583334 45 0 0 1.058333,1.058333 h 1.058332 a 1.0583343,1.0583343 45 0 1 1.058334,1.058334 l 0,6.349998 a 1.0583346,1.0583346 45 0 0 1.058335,1.058335 h 1.058332 a 1.0583328,1.0583328 135 0 0 1.058333,-1.058333 l 0,-6.349999 a 1.0583349,1.0583349 135 0 1 1.058335,-1.058335 h 1.058333 a 1.0583323,1.0583323 135 0 0 1.058332,-1.058332 l 0,-2.116667 a 1.0583341,1.0583341 45 0 0 -1.058334,-1.058334 l -7.408331,0 a 1.0583341,1.0583341 135 0 0 -1.058334,1.058334 z"
       id="path8"
       transform="matrix(0.42224784,0,-0.29588462,0.75548291,15.633121,-4.4770386)" />
    <path
       style="opacity:1;fill:#edcd19;fill-opacity:1;stroke:#4a2605;stroke-width:3.81895;stroke-linecap:round;stroke-linejoin:round;stroke-dasharray:none;stroke-opacity:1;paint-order:stroke fill markers"
       d="m 47.625004,30.691666 0,2.116666 a 1.0583334,1.0583334 45 0 0 1.058333,1.058333 h 1.058332 a 1.0583343,1.0583343 45 0 1 1.058334,1.058334 l 0,6.349998 a 1.0583346,1.0583346 45 0 0 1.058335,1.058335 h 1.058332 a 1.0583328,1.0583328 135 0 0 1.058333,-1.058333 l 0,-6.349999 a 1.0583349,1.0583349 135 0 1 1.058335,-1.058335 h 1.058333 a 1.0583323,1.0583323 135 0 0 1.058332,-1.058332 l 0,-2.116667 a 1.0583341,1.0583341 45 0 0 -1.058334,-1.058334 l -7.408331,0 a 1.0583341,1.0583341 135 0 0 -1.058334,1.058334 z"
       id="path8-1"
       transform="matrix(0.42224784,0,-0.29588462,0.75548291,36.189556,-4.4770386)" />
    <path
       style="opacity:1;fill:#edcd19;fill-opacity:1;stroke:#4a2605;stroke-width:3.81895;stroke-linecap:round;stroke-linejoin:round;stroke-dasharray:none;stroke-opacity:1;paint-order:stroke fill markers"
       d="m 111.12501,30.691666 0,10.583333 a 1.0583338,1.0583338 135 0 1 -1.05833,1.058334 h -1.05834 a 1.0583338,1.0583338 45 0 1 -1.05833,-1.058334 l 0,-10.583333 a 1.0583321,1.0583321 135 0 1 1.05833,-1.058332 l 1.05834,0 a 1.0583321,1.0583321 45 0 1 1.05833,1.058332 z"
       id="path10"
       transform="matrix(0.42224784,0,-0.29588462,0.75548291,15.633121,-4.4770386)" />
    <path
       style="opacity:1;fill:#edcd19;fill-opacity:1;stroke:#4a2605;stroke-width:3.81895;stroke-linecap:round;stroke-linejoin:round;stroke-dasharray:none;stroke-opacity:1;paint-order:stroke fill markers"
       d="m 25.400002,13.758333 v 6.349999 a 1.0583335,1.0583335 45 0 0 1.058334,1.058334 h 2.116667 a 1.058333,1.058333 135 0 0 1.058333,-1.058333 v -6.35 A 1.0583331,1.0583331 135 0 1 30.691669,12.7 h 1.058334 a 1.0583331,1.0583331 45 0 1 1.058333,1.058333 v 9.525 a 2.1166661,2.1166661 135 0 1 -2.116666,2.116666 h -6.350002 a 2.1166661,2.1166661 45 0 1 -2.116666,-2.116666 l 0,-9.525 A 1.0583333,1.0583333 135 0 1 23.283335,12.7 h 1.058334 a 1.0583331,1.0583331 45 0 1 1.058333,1.058333 z"
       id="path1-7"
       transform="matrix(0.42224784,0,-0.29588462,0.75548291,31.179243,8.3158054)" />
    <path
       style="font-style:italic;font-weight:bold;font-size:74.6667px;font-family:'IBM Plex Mono';-inkscape-font-specification:'IBM Plex Mono Bold Italic';white-space:pre;fill:#edcd19;stroke:#4a2605;stroke-width:2.15695;stroke-linecap:round;stroke-linejoin:round;stroke-dasharray:none;paint-order:stroke fill markers"
       d="m 45.35217,16.532476 h 1.280235 L 52.06099,3.1145218 h -1.280234 l -2.345838,5.8023583 h -0.06138 c 0.268204,-1.2330011 0.16136,-1.9582957 -0.548909,-1.9582957 -1.25393,0 -2.871776,2.4478697 -4.076852,6.1650056 -0.711289,2.194017 -0.807397,3.626475 0.148395,3.626475 0.771648,0 1.5042,-1.015413 2.310577,-2.447871 h 0.04384 z m -0.221772,-1.83137 c -0.438436,0 -0.364125,-0.68903 -0.08485,-1.577516 0.09993,-0.30825 0.211525,-0.598368 0.299603,-0.815956 l 0.440392,-1.087943 c 0.572511,-1.4143245 1.155606,-2.2121488 1.786953,-2.2121488 0.552432,0 0.598185,0.5621033 0.201831,1.5412518 l -0.610672,1.504986 c -0.314151,0.779692 -0.730345,1.414325 -0.982334,1.75884 -0.386803,0.543972 -0.735249,0.888486 -1.050923,0.888486 z m 4.833738,2.048959 c 1.15747,0 2.112425,-1.160472 3.038575,-2.556665 l -0.451127,-1.06981 c -0.864474,1.233002 -1.262644,1.595649 -1.762459,1.595649 -0.613814,0 -0.685876,-0.562104 -0.362562,-1.559384 0.02939,-0.09066 0.05291,-0.163191 0.108706,-0.30825 2.64267,-0.199456 3.63936,-1.813237 4.127273,-3.3182244 0.558447,-1.7225751 0.08062,-2.5747962 -0.831326,-2.5747962 -1.604676,0 -3.418131,2.3209432 -4.546788,5.8023586 -0.805343,2.484135 -0.653136,3.989122 0.679712,3.989122 z m 3.130066,-7.9238466 c 0.385824,0 0.449511,0.3445152 0.255523,0.9428833 -0.193987,0.5983683 -0.551984,1.3780603 -2.232983,1.5593843 l 0.108601,-0.253853 c 0.689785,-1.6137816 1.316431,-2.2484146 1.868859,-2.2484146 z"
       id="text17"
       aria-label="de" />
    <path
       style="font-style:italic;font-weight:bold;font-size:74.6667px;font-family:'IBM Plex Mono';-inkscape-font-specification:'IBM Plex Mono Bold Italic';white-space:pre;fill:#edcd19;stroke:#4a2605;stroke-width:2.15696;stroke-linecap:round;stroke-linejoin:round;stroke-dasharray:none;paint-order:stroke fill markers"
       d="m 20.723912,27.644892 c 1.350384,0 2.618221,-1.233001 3.288361,-3.300091 0.493787,-1.523119 0.240668,-2.175884 -0.401753,-2.5204 l -0.575259,-0.30825 c -0.239451,-0.126926 -0.359028,-0.271985 -0.194433,-0.779692 0.217502,-0.670897 0.627328,-1.015412 1.083302,-1.015412 0.508587,0 0.794282,0.417044 0.825489,0.942883 l 1.183529,-1.486854 c -0.04238,-0.815957 -0.561741,-1.323664 -1.368465,-1.323664 -1.17501,0 -2.416345,1.124207 -3.098242,3.227562 -0.534937,1.650046 -0.194032,2.248414 0.389996,2.556664 l 0.554831,0.290118 c 0.230682,0.126927 0.364809,0.308251 0.200214,0.815957 -0.217502,0.670898 -0.668282,1.033545 -1.194405,1.033545 -0.534893,0 -0.893726,-0.38078 -0.907005,-1.124207 l -1.195188,1.468722 c -0.01053,0.979148 0.505848,1.523119 1.409028,1.523119 z"
       id="text17-2"
       aria-label="s" />
    <path
       style="opacity:1;fill:#edcd19;fill-opacity:1;stroke:#4a2605;stroke-width:3.81895;stroke-linecap:round;stroke-linejoin:round;stroke-dasharray:none;stroke-opacity:1;paint-order:stroke fill markers"
       d="m 25.400002,13.758333 v 6.349999 a 1.0583335,1.0583335 45 0 0 1.058334,1.058334 h 2.116667 a 1.058333,1.058333 135 0 0 1.058333,-1.058333 v -6.35 A 1.0583331,1.0583331 135 0 1 30.691669,12.7 h 1.058334 a 1.0583331,1.0583331 45 0 1 1.058333,1.058333 v 9.525 a 2.1166661,2.1166661 135 0 1 -2.116666,2.116666 h -6.350002 a 2.1166661,2.1166661 45 0 1 -2.116666,-2.116666 l 0,-9.525 A 1.0583333,1.0583333 135 0 1 23.283335,12.7 h 1.058334 a 1.0583331,1.0583331 45 0 1 1.058333,1.058333 z"
       id="path1"
       transform="matrix(0.42224784,0,-0.29588462,0.75548291,29.678002,-2.5155001)" />
    <path
       style="opacity:1;fill:#edcd19;fill-opacity:1;stroke:#4a2605;stroke-width:3.81895;stroke-linecap:round;stroke-linejoin:round;stroke-dasharray:none;stroke-opacity:1;paint-order:stroke fill markers"
       d="M 34.925002,24.341666 V 13.758333 A 1.0583331,1.0583331 135 0 1 35.983335,12.7 h 1.058334 a 1.0583331,1.0583331 45 0 1 1.058333,1.058333 v 1.058333 L 42.333335,12.7 h 2.116667 a 1.0583331,1.0583331 45 0 1 1.058333,1.058333 v 10.583333 a 1.0583328,1.0583328 135 0 1 -1.058333,1.058333 H 43.391668 A 1.0583328,1.0583328 45 0 1 42.333335,24.341666 V 18.12324 A 0.73540292,0.73540292 31.717477 0 0 41.26905,17.465475 l -2.222445,1.111223 a 1.7124202,1.7124202 121.71748 0 0 -0.946603,1.531635 v 4.233333 a 1.0583328,1.0583328 135 0 1 -1.058333,1.058333 h -1.058334 a 1.0583328,1.0583328 45 0 1 -1.058333,-1.058333 z"
       id="path2-2"
       transform="matrix(0.42224783,0,-0.29588463,0.75548292,6.3215988,8.3158055)" />
    <path
       style="opacity:1;fill:#edcd19;fill-opacity:1;stroke:#4a2605;stroke-width:3.81895;stroke-linecap:round;stroke-linejoin:round;stroke-dasharray:none;stroke-opacity:1;paint-order:stroke fill markers"
       d="M 34.925002,24.341666 V 13.758333 A 1.0583331,1.0583331 135 0 1 35.983335,12.7 h 1.058334 a 1.0583331,1.0583331 45 0 1 1.058333,1.058333 v 1.058333 L 42.333335,12.7 h 2.116667 a 1.0583331,1.0583331 45 0 1 1.058333,1.058333 v 10.583333 a 1.0583328,1.0583328 135 0 1 -1.058333,1.058333 H 43.391668 A 1.0583328,1.0583328 45 0 1 42.333335,24.341666 V 18.12324 A 0.73540292,0.73540292 31.717477 0 0 41.26905,17.465475 l -2.222445,1.111223 a 1.7124202,1.7124202 121.71748 0 0 -0.946603,1.531635 v 4.233333 a 1.0583328,1.0583328 135 0 1 -1.058333,1.058333 h -1.058334 a 1.0583328,1.0583328 45 0 1 -1.058333,-1.058333 z"
       id="path2"
       transform="matrix(0.42224784,0,-0.29588462,0.75548291,29.678002,-2.5155001)" />
    <path
       style="opacity:1;fill:#edcd19;fill-opacity:1;stroke:#4a2605;stroke-width:3.81895;stroke-linecap:round;stroke-linejoin:round;stroke-dasharray:none;stroke-opacity:1;paint-order:stroke fill markers"
       d="M 73.025007,24.341666 V 13.758332 A 1.0583325,1.0583325 135 0 1 74.08334,12.7 h 1.058334 a 1.0583331,1.0583331 45 0 1 1.058333,1.058333 v 1.058333 l 3.132923,-1.566461 a 2.4605929,2.4605929 180 0 1 2.20082,0 l 0.06965,0.03483 a 1.7124191,1.7124191 58.28252 0 1 0.946602,1.531634 v 1e-6 a 1.7124191,1.7124191 121.71748 0 1 -0.946602,1.531634 l -1.170065,0.585032 -3.28673,1.643365 a 1.7124202,1.7124202 121.71748 0 0 -0.946603,1.531635 v 4.233332 a 1.0583341,1.0583341 135 0 1 -1.058334,1.058334 H 74.08334 a 1.0583328,1.0583328 45 0 1 -1.058333,-1.058333 z"
       id="path2-6"
       transform="matrix(0.42224784,0,-0.29588462,0.75548291,29.678002,-2.5155001)" />
    <path
       style="fill:#edcd19;fill-opacity:1;stroke:#4a2605;stroke-width:2.15695;stroke-linecap:butt;stroke-linejoin:round;stroke-dasharray:none;stroke-opacity:1;paint-order:stroke fill markers"
       d="m 22.610678,8.1557559 -1.23919,3.9593441 0.0596,1.831969 a 0.92639749,0.89679787 44.53488 0 0 0.941194,0.911257 h 2.962414 a 0.23159881,0.22419893 44.53488 0 0 0.220355,-0.228092 l -0.02938,-0.911257 a 0.23159881,0.22419893 44.53488 0 0 -0.235276,-0.228092 h -2.050602 a 0.46319898,0.44839916 44.53488 0 1 -0.470598,-0.455628 z"
       id="path11" />
    <path
       style="fill:#edcd19;fill-opacity:1;stroke:#4a2605;stroke-width:2.00358;stroke-linecap:butt;stroke-linejoin:round;stroke-dasharray:none;stroke-opacity:1;paint-order:stroke fill markers"
       d="M 4.2333342,10.583333 H 2.3283334 A 0.21166671,0.21166671 45 0 1 2.1166667,10.371666 V 9.5250006 A 0.21166671,0.21166671 135 0 1 2.3283334,9.3133339 h 1.4816665 a 0.84666696,0.84666696 135 0 0 0.846667,-0.846667 V 3.8100004 A 0.42333343,0.42333343 45 0 0 4.2333335,3.386667 H 2.3283336 A 0.2116669,0.2116669 45 0 1 2.1166667,3.1750001 V 2.3291607 A 0.21249355,0.21249355 135 0 1 2.3291603,2.1166671 h 2.7508403 a 0.84666633,0.84666633 45 0 1 0.8466663,0.8466663 l 0,5.9266669 A 1.6933327,1.6933327 135 0 1 4.2333342,10.583333 Z"
       id="path1-9"
       transform="matrix(1.0765491,0,-0.33688095,1.0765491,17.270465,3.4648465)" />
  </g>
</svg>
